<?xml version="1.0" encoding="utf-8" standalone="no"?>
<!DOCTYPE svg PUBLIC "-//W3C//DTD SVG 1.1//EN"
  "http://www.w3.org/Graphics/SVG/1.1/DTD/svg11.dtd">
<svg xmlns:xlink="http://www.w3.org/1999/xlink" width="1281.854061pt" height="1290.859pt" viewBox="0 0 1281.854061 1290.859" xmlns="http://www.w3.org/2000/svg" version="1.1">
 <metadata>
  <rdf:RDF xmlns:dc="http://purl.org/dc/elements/1.1/" xmlns:cc="http://creativecommons.org/ns#" xmlns:rdf="http://www.w3.org/1999/02/22-rdf-syntax-ns#">
   <cc:Work>
    <dc:type rdf:resource="http://purl.org/dc/dcmitype/StillImage"/>
    <dc:date>2026-03-22T14:16:54.362685</dc:date>
    <dc:format>image/svg+xml</dc:format>
    <dc:creator>
     <cc:Agent>
      <dc:title>Matplotlib v3.10.7, https://matplotlib.org/</dc:title>
     </cc:Agent>
    </dc:creator>
   </cc:Work>
  </rdf:RDF>
 </metadata>
 <defs>
  <style type="text/css">*{stroke-linejoin: round; stroke-linecap: butt}</style>
 </defs>
 <g id="figure_1">
  <g id="patch_1">
   <path d="M 0 1290.859 
L 1281.854061 1290.859 
L 1281.854061 0 
L 0 0 
z
" style="fill: #1c2833"/>
  </g>
  <g id="axes_1">
   <g id="patch_2">
    <path d="M 413.860659 607.158438 
Q 640.927279 655.634264 866.070985 607.56885 
" style="fill: none; opacity: 0.65; stroke: #ecf0f1; stroke-width: 3.2; stroke-linecap: round"/>
    <path d="M 862.89534 604.66794 
L 866.070985 607.56885 
L 864.35682 611.513674 
" style="fill: none; opacity: 0.65; stroke: #ecf0f1; stroke-width: 3.2; stroke-linecap: round"/>
   </g>
   <g id="text_1">
    <g id="patch_3">
     <path d="M 637.427655 622.965199 
L 644.426405 622.965199 
Q 646.626405 622.965199 646.626405 620.765199 
L 646.626405 610.119262 
Q 646.626405 607.919262 644.426405 607.919262 
L 637.427655 607.919262 
Q 635.227655 607.919262 635.227655 610.119262 
L 635.227655 620.765199 
Q 635.227655 622.965199 637.427655 622.965199 
z
" style="fill: #2c3e50; opacity: 0.8; stroke: #ecf0f1; stroke-linejoin: miter"/>
    </g>
    <!-- 8 -->
    <g style="fill: #ecf0f1" transform="translate(637.427655 618.477543) scale(0.11 -0.11)">
     <defs>
      <path id="DejaVuSans-38" d="M 2034 2216 
Q 1584 2216 1326 1975 
Q 1069 1734 1069 1313 
Q 1069 891 1326 650 
Q 1584 409 2034 409 
Q 2484 409 2743 651 
Q 3003 894 3003 1313 
Q 3003 1734 2745 1975 
Q 2488 2216 2034 2216 
z
M 1403 2484 
Q 997 2584 770 2862 
Q 544 3141 544 3541 
Q 544 4100 942 4425 
Q 1341 4750 2034 4750 
Q 2731 4750 3128 4425 
Q 3525 4100 3525 3541 
Q 3525 3141 3298 2862 
Q 3072 2584 2669 2484 
Q 3125 2378 3379 2068 
Q 3634 1759 3634 1313 
Q 3634 634 3220 271 
Q 2806 -91 2034 -91 
Q 1263 -91 848 271 
Q 434 634 434 1313 
Q 434 1759 690 2068 
Q 947 2378 1403 2484 
z
M 1172 3481 
Q 1172 3119 1398 2916 
Q 1625 2713 2034 2713 
Q 2441 2713 2670 2916 
Q 2900 3119 2900 3481 
Q 2900 3844 2670 4047 
Q 2441 4250 2034 4250 
Q 1625 4250 1398 4047 
Q 1172 3844 1172 3481 
z
" transform="scale(0.015625)"/>
     </defs>
     <use xlink:href="#DejaVuSans-38"/>
    </g>
   </g>
   <g id="patch_4">
    <path d="M 646.893252 446.519775 
Q 670.957445 677.452818 786.735922 877.575148 
" style="fill: none; opacity: 0.65; stroke: #ecf0f1; stroke-width: 1.6; stroke-linecap: round"/>
    <path d="M 788.513523 873.6585 
L 786.735922 877.575148 
L 782.454465 877.163898 
" style="fill: none; opacity: 0.65; stroke: #ecf0f1; stroke-width: 1.6; stroke-linecap: round"/>
   </g>
   <g id="text_2">
    <g id="patch_5">
     <path d="M 705.682889 672.555529 
L 712.681639 672.555529 
Q 714.881639 672.555529 714.881639 670.355529 
L 714.881639 659.709592 
Q 714.881639 657.509592 712.681639 657.509592 
L 705.682889 657.509592 
Q 703.482889 657.509592 703.482889 659.709592 
L 703.482889 670.355529 
Q 703.482889 672.555529 705.682889 672.555529 
z
" style="fill: #2c3e50; opacity: 0.8; stroke: #ecf0f1; stroke-linejoin: miter"/>
    </g>
    <!-- 1 -->
    <g style="fill: #ecf0f1" transform="translate(705.682889 668.067873) scale(0.11 -0.11)">
     <defs>
      <path id="DejaVuSans-31" d="M 794 531 
L 1825 531 
L 1825 4091 
L 703 3866 
L 703 4441 
L 1819 4666 
L 2450 4666 
L 2450 531 
L 3481 531 
L 3481 0 
L 794 0 
L 794 531 
z
" transform="scale(0.015625)"/>
     </defs>
     <use xlink:href="#DejaVuSans-31"/>
    </g>
   </g>
   <g id="patch_6">
    <path d="M 553.523773 388.935128 
Q 459.105218 436.955988 385.647284 510.523066 
" style="fill: none; opacity: 0.65; stroke: #ecf0f1; stroke-width: 3.2; stroke-linecap: round"/>
    <path d="M 389.890449 511.227023 
L 385.647284 510.523066 
L 384.937028 506.280951 
" style="fill: none; opacity: 0.65; stroke: #ecf0f1; stroke-width: 3.2; stroke-linecap: round"/>
   </g>
   <g id="text_3">
    <g id="patch_7">
     <path d="M 466.295386 459.189638 
L 473.294136 459.189638 
Q 475.494136 459.189638 475.494136 456.989638 
L 475.494136 446.343701 
Q 475.494136 444.143701 473.294136 444.143701 
L 466.295386 444.143701 
Q 464.095386 444.143701 464.095386 446.343701 
L 464.095386 456.989638 
Q 464.095386 459.189638 466.295386 459.189638 
z
" style="fill: #2c3e50; opacity: 0.8; stroke: #ecf0f1; stroke-linejoin: miter"/>
    </g>
    <!-- 6 -->
    <g style="fill: #ecf0f1" transform="translate(466.295386 454.701982) scale(0.11 -0.11)">
     <defs>
      <path id="DejaVuSans-36" d="M 2113 2584 
Q 1688 2584 1439 2293 
Q 1191 2003 1191 1497 
Q 1191 994 1439 701 
Q 1688 409 2113 409 
Q 2538 409 2786 701 
Q 3034 994 3034 1497 
Q 3034 2003 2786 2293 
Q 2538 2584 2113 2584 
z
M 3366 4563 
L 3366 3988 
Q 3128 4100 2886 4159 
Q 2644 4219 2406 4219 
Q 1781 4219 1451 3797 
Q 1122 3375 1075 2522 
Q 1259 2794 1537 2939 
Q 1816 3084 2150 3084 
Q 2853 3084 3261 2657 
Q 3669 2231 3669 1497 
Q 3669 778 3244 343 
Q 2819 -91 2113 -91 
Q 1303 -91 875 529 
Q 447 1150 447 2328 
Q 447 3434 972 4092 
Q 1497 4750 2381 4750 
Q 2619 4750 2861 4703 
Q 3103 4656 3366 4563 
z
" transform="scale(0.015625)"/>
     </defs>
     <use xlink:href="#DejaVuSans-36"/>
    </g>
   </g>
   <g id="patch_8">
    <path d="M 867.993402 559.909647 
Q 640.926782 511.43382 414.821619 559.704493 
" style="fill: none; opacity: 0.65; stroke: #ecf0f1; stroke-width: 1.6; stroke-linecap: round"/>
    <path d="M 417.997264 562.605403 
L 414.821619 559.704493 
L 416.535784 555.759669 
" style="fill: none; opacity: 0.65; stroke: #ecf0f1; stroke-width: 1.6; stroke-linecap: round"/>
   </g>
   <g id="text_4">
    <g id="patch_9">
     <path d="M 637.427655 559.148823 
L 644.426405 559.148823 
Q 646.626405 559.148823 646.626405 556.948823 
L 646.626405 546.302885 
Q 646.626405 544.102885 644.426405 544.102885 
L 637.427655 544.102885 
Q 635.227655 544.102885 635.227655 546.302885 
L 635.227655 556.948823 
Q 635.227655 559.148823 637.427655 559.148823 
z
" style="fill: #2c3e50; opacity: 0.8; stroke: #ecf0f1; stroke-linejoin: miter"/>
    </g>
    <!-- 1 -->
    <g style="fill: #ecf0f1" transform="translate(637.427655 554.661166) scale(0.11 -0.11)">
     <use xlink:href="#DejaVuSans-31"/>
    </g>
   </g>
   <g id="patch_10">
    <path d="M 435.327082 864.00788 
Q 418.833467 759.371236 371.11979 665.899475 
" style="fill: none; opacity: 0.65; stroke: #ecf0f1; stroke-width: 1.6; stroke-linecap: round"/>
    <path d="M 369.139077 669.717429 
L 371.11979 665.899475 
L 375.373762 666.534867 
" style="fill: none; opacity: 0.65; stroke: #ecf0f1; stroke-width: 1.6; stroke-linecap: round"/>
   </g>
   <g id="text_5">
    <g id="patch_11">
     <path d="M 398.040153 772.514714 
L 405.038903 772.514714 
Q 407.238903 772.514714 407.238903 770.314714 
L 407.238903 759.668776 
Q 407.238903 757.468776 405.038903 757.468776 
L 398.040153 757.468776 
Q 395.840153 757.468776 395.840153 759.668776 
L 395.840153 770.314714 
Q 395.840153 772.514714 398.040153 772.514714 
z
" style="fill: #2c3e50; opacity: 0.8; stroke: #ecf0f1; stroke-linejoin: miter"/>
    </g>
    <!-- 1 -->
    <g style="fill: #ecf0f1" transform="translate(398.040153 768.027057) scale(0.11 -0.11)">
     <use xlink:href="#DejaVuSans-31"/>
    </g>
   </g>
   <g id="patch_12">
    <path d="M 330.241649 678.163454 
Q 346.735263 782.800097 394.44894 876.271859 
" style="fill: none; opacity: 0.65; stroke: #ecf0f1; stroke-width: 1.6; stroke-linecap: round"/>
    <path d="M 396.429653 872.453904 
L 394.44894 876.271859 
L 390.194968 875.636467 
" style="fill: none; opacity: 0.65; stroke: #ecf0f1; stroke-width: 1.6; stroke-linecap: round"/>
   </g>
   <g id="text_6">
    <g id="patch_13">
     <path d="M 360.529828 784.702557 
L 367.528578 784.702557 
Q 369.728578 784.702557 369.728578 782.502557 
L 369.728578 771.85662 
Q 369.728578 769.65662 367.528578 769.65662 
L 360.529828 769.65662 
Q 358.329828 769.65662 358.329828 771.85662 
L 358.329828 782.502557 
Q 358.329828 784.702557 360.529828 784.702557 
z
" style="fill: #2c3e50; opacity: 0.8; stroke: #ecf0f1; stroke-linejoin: miter"/>
    </g>
    <!-- 1 -->
    <g style="fill: #ecf0f1" transform="translate(360.529828 780.214901) scale(0.11 -0.11)">
     <use xlink:href="#DejaVuSans-31"/>
    </g>
   </g>
   <g id="patch_14">
    <path d="M 590.024539 431.919096 
Q 473.753843 632.89243 449.817117 862.60322 
" style="fill: none; opacity: 0.65; stroke: #ecf0f1; stroke-width: 2; stroke-linecap: round"/>
    <path d="M 453.557375 860.479433 
L 449.817117 862.60322 
L 446.595073 859.753935 
" style="fill: none; opacity: 0.65; stroke: #ecf0f1; stroke-width: 2; stroke-linecap: round"/>
   </g>
   <g id="text_7">
    <g id="patch_15">
     <path d="M 508.479441 652.835184 
L 515.478191 652.835184 
Q 517.678191 652.835184 517.678191 650.635184 
L 517.678191 639.989247 
Q 517.678191 637.789247 515.478191 637.789247 
L 508.479441 637.789247 
Q 506.279441 637.789247 506.279441 639.989247 
L 506.279441 650.635184 
Q 506.279441 652.835184 508.479441 652.835184 
z
" style="fill: #2c3e50; opacity: 0.8; stroke: #ecf0f1; stroke-linejoin: miter"/>
    </g>
    <!-- 2 -->
    <g style="fill: #ecf0f1" transform="translate(508.479441 648.347528) scale(0.11 -0.11)">
     <defs>
      <path id="DejaVuSans-32" d="M 1228 531 
L 3431 531 
L 3431 0 
L 469 0 
L 469 531 
Q 828 903 1448 1529 
Q 2069 2156 2228 2338 
Q 2531 2678 2651 2914 
Q 2772 3150 2772 3378 
Q 2772 3750 2511 3984 
Q 2250 4219 1831 4219 
Q 1534 4219 1204 4116 
Q 875 4013 500 3803 
L 500 4441 
Q 881 4594 1212 4672 
Q 1544 4750 1819 4750 
Q 2544 4750 2975 4387 
Q 3406 4025 3406 3419 
Q 3406 3131 3298 2873 
Q 3191 2616 2906 2266 
Q 2828 2175 2409 1742 
Q 1991 1309 1228 531 
z
" transform="scale(0.015625)"/>
     </defs>
     <use xlink:href="#DejaVuSans-32"/>
    </g>
   </g>
   <g id="patch_16">
    <path d="M 135.454845 687.912612 
L 508.235451 687.912612 
Q 519.418869 687.912612 519.418869 676.729194 
L 519.418869 490.338891 
Q 519.418869 479.155472 508.235451 479.155472 
L 135.454845 479.155472 
Q 124.271427 479.155472 124.271427 490.338891 
L 124.271427 676.729194 
Q 124.271427 687.912612 135.454845 687.912612 
z
" clip-path="url(#pd145a55391)" style="fill: #1a6fa8; stroke: #ecf0f1; stroke-width: 2; stroke-linejoin: miter"/>
   </g>
   <g id="patch_17">
    <path d="M 651.740176 1063.015861 
L 1024.520782 1063.015861 
Q 1035.7042 1063.015861 1035.7042 1051.832443 
L 1035.7042 865.44214 
Q 1035.7042 854.258722 1024.520782 854.258722 
L 651.740176 854.258722 
Q 640.556757 854.258722 640.556757 865.44214 
L 640.556757 1051.832443 
Q 640.556757 1063.015861 651.740176 1063.015861 
z
" clip-path="url(#pd145a55391)" style="fill: #8e44ad; stroke: #ecf0f1; stroke-width: 2; stroke-linejoin: miter"/>
   </g>
   <g id="patch_18">
    <path d="M 257.333279 1063.015861 
L 630.113885 1063.015861 
Q 641.297303 1063.015861 641.297303 1051.832443 
L 641.297303 865.44214 
Q 641.297303 854.258722 630.113885 854.258722 
L 257.333279 854.258722 
Q 246.149861 854.258722 246.149861 865.44214 
L 246.149861 1051.832443 
Q 246.149861 1063.015861 257.333279 1063.015861 
z
" clip-path="url(#pd145a55391)" style="fill: #16a085; stroke: #ecf0f1; stroke-width: 2; stroke-linejoin: miter"/>
   </g>
   <g id="patch_19">
    <path d="M 773.618609 687.912612 
L 1146.399215 687.912612 
Q 1157.582634 687.912612 1157.582634 676.729194 
L 1157.582634 490.338891 
Q 1157.582634 479.155472 1146.399215 479.155472 
L 773.618609 479.155472 
Q 762.435191 479.155472 762.435191 490.338891 
L 762.435191 676.729194 
Q 762.435191 687.912612 773.618609 687.912612 
z
" clip-path="url(#pd145a55391)" style="fill: #c0392b; stroke: #ecf0f1; stroke-width: 2; stroke-linejoin: miter"/>
   </g>
   <g id="patch_20">
    <path d="M 454.536727 456.086055 
L 827.317333 456.086055 
Q 838.500752 456.086055 838.500752 444.902636 
L 838.500752 258.512333 
Q 838.500752 247.328915 827.317333 247.328915 
L 454.536727 247.328915 
Q 443.353309 247.328915 443.353309 258.512333 
L 443.353309 444.902636 
Q 443.353309 456.086055 454.536727 456.086055 
z
" clip-path="url(#pd145a55391)" style="fill: #d35400; stroke: #ecf0f1; stroke-width: 2; stroke-linejoin: miter"/>
   </g>
   <g id="text_8">
    <!-- South Africa Policy Reform — Package Overview -->
    <g style="fill: #ecf0f1" transform="translate(423.77078 19.3575) scale(0.16 -0.16)">
     <defs>
      <path id="DejaVuSans-Bold-53" d="M 3834 4519 
L 3834 3531 
Q 3450 3703 3084 3790 
Q 2719 3878 2394 3878 
Q 1963 3878 1756 3759 
Q 1550 3641 1550 3391 
Q 1550 3203 1689 3098 
Q 1828 2994 2194 2919 
L 2706 2816 
Q 3484 2659 3812 2340 
Q 4141 2022 4141 1434 
Q 4141 663 3683 286 
Q 3225 -91 2284 -91 
Q 1841 -91 1394 -6 
Q 947 78 500 244 
L 500 1259 
Q 947 1022 1364 901 
Q 1781 781 2169 781 
Q 2563 781 2772 912 
Q 2981 1044 2981 1288 
Q 2981 1506 2839 1625 
Q 2697 1744 2272 1838 
L 1806 1941 
Q 1106 2091 782 2419 
Q 459 2747 459 3303 
Q 459 4000 909 4375 
Q 1359 4750 2203 4750 
Q 2588 4750 2994 4692 
Q 3400 4634 3834 4519 
z
" transform="scale(0.015625)"/>
      <path id="DejaVuSans-Bold-6f" d="M 2203 2784 
Q 1831 2784 1636 2517 
Q 1441 2250 1441 1747 
Q 1441 1244 1636 976 
Q 1831 709 2203 709 
Q 2569 709 2762 976 
Q 2956 1244 2956 1747 
Q 2956 2250 2762 2517 
Q 2569 2784 2203 2784 
z
M 2203 3584 
Q 3106 3584 3614 3096 
Q 4122 2609 4122 1747 
Q 4122 884 3614 396 
Q 3106 -91 2203 -91 
Q 1297 -91 786 396 
Q 275 884 275 1747 
Q 275 2609 786 3096 
Q 1297 3584 2203 3584 
z
" transform="scale(0.015625)"/>
      <path id="DejaVuSans-Bold-75" d="M 500 1363 
L 500 3500 
L 1625 3500 
L 1625 3150 
Q 1625 2866 1622 2436 
Q 1619 2006 1619 1863 
Q 1619 1441 1641 1255 
Q 1663 1069 1716 984 
Q 1784 875 1895 815 
Q 2006 756 2150 756 
Q 2500 756 2700 1025 
Q 2900 1294 2900 1772 
L 2900 3500 
L 4019 3500 
L 4019 0 
L 2900 0 
L 2900 506 
Q 2647 200 2364 54 
Q 2081 -91 1741 -91 
Q 1134 -91 817 281 
Q 500 653 500 1363 
z
" transform="scale(0.015625)"/>
      <path id="DejaVuSans-Bold-74" d="M 1759 4494 
L 1759 3500 
L 2913 3500 
L 2913 2700 
L 1759 2700 
L 1759 1216 
Q 1759 972 1856 886 
Q 1953 800 2241 800 
L 2816 800 
L 2816 0 
L 1856 0 
Q 1194 0 917 276 
Q 641 553 641 1216 
L 641 2700 
L 84 2700 
L 84 3500 
L 641 3500 
L 641 4494 
L 1759 4494 
z
" transform="scale(0.015625)"/>
      <path id="DejaVuSans-Bold-68" d="M 4056 2131 
L 4056 0 
L 2931 0 
L 2931 347 
L 2931 1625 
Q 2931 2084 2911 2256 
Q 2891 2428 2841 2509 
Q 2775 2619 2662 2680 
Q 2550 2741 2406 2741 
Q 2056 2741 1856 2470 
Q 1656 2200 1656 1722 
L 1656 0 
L 538 0 
L 538 4863 
L 1656 4863 
L 1656 2988 
Q 1909 3294 2193 3439 
Q 2478 3584 2822 3584 
Q 3428 3584 3742 3212 
Q 4056 2841 4056 2131 
z
" transform="scale(0.015625)"/>
      <path id="DejaVuSans-Bold-20" transform="scale(0.015625)"/>
      <path id="DejaVuSans-Bold-41" d="M 3419 850 
L 1538 850 
L 1241 0 
L 31 0 
L 1759 4666 
L 3194 4666 
L 4922 0 
L 3713 0 
L 3419 850 
z
M 1838 1716 
L 3116 1716 
L 2478 3572 
L 1838 1716 
z
" transform="scale(0.015625)"/>
      <path id="DejaVuSans-Bold-66" d="M 2841 4863 
L 2841 4128 
L 2222 4128 
Q 1984 4128 1890 4042 
Q 1797 3956 1797 3744 
L 1797 3500 
L 2753 3500 
L 2753 2700 
L 1797 2700 
L 1797 0 
L 678 0 
L 678 2700 
L 122 2700 
L 122 3500 
L 678 3500 
L 678 3744 
Q 678 4316 997 4589 
Q 1316 4863 1984 4863 
L 2841 4863 
z
" transform="scale(0.015625)"/>
      <path id="DejaVuSans-Bold-72" d="M 3138 2547 
Q 2991 2616 2845 2648 
Q 2700 2681 2553 2681 
Q 2122 2681 1889 2404 
Q 1656 2128 1656 1613 
L 1656 0 
L 538 0 
L 538 3500 
L 1656 3500 
L 1656 2925 
Q 1872 3269 2151 3426 
Q 2431 3584 2822 3584 
Q 2878 3584 2943 3579 
Q 3009 3575 3134 3559 
L 3138 2547 
z
" transform="scale(0.015625)"/>
      <path id="DejaVuSans-Bold-69" d="M 538 3500 
L 1656 3500 
L 1656 0 
L 538 0 
L 538 3500 
z
M 538 4863 
L 1656 4863 
L 1656 3950 
L 538 3950 
L 538 4863 
z
" transform="scale(0.015625)"/>
      <path id="DejaVuSans-Bold-63" d="M 3366 3391 
L 3366 2478 
Q 3138 2634 2908 2709 
Q 2678 2784 2431 2784 
Q 1963 2784 1702 2511 
Q 1441 2238 1441 1747 
Q 1441 1256 1702 982 
Q 1963 709 2431 709 
Q 2694 709 2930 787 
Q 3166 866 3366 1019 
L 3366 103 
Q 3103 6 2833 -42 
Q 2563 -91 2291 -91 
Q 1344 -91 809 395 
Q 275 881 275 1747 
Q 275 2613 809 3098 
Q 1344 3584 2291 3584 
Q 2566 3584 2833 3536 
Q 3100 3488 3366 3391 
z
" transform="scale(0.015625)"/>
      <path id="DejaVuSans-Bold-61" d="M 2106 1575 
Q 1756 1575 1579 1456 
Q 1403 1338 1403 1106 
Q 1403 894 1545 773 
Q 1688 653 1941 653 
Q 2256 653 2472 879 
Q 2688 1106 2688 1447 
L 2688 1575 
L 2106 1575 
z
M 3816 1997 
L 3816 0 
L 2688 0 
L 2688 519 
Q 2463 200 2181 54 
Q 1900 -91 1497 -91 
Q 953 -91 614 226 
Q 275 544 275 1050 
Q 275 1666 698 1953 
Q 1122 2241 2028 2241 
L 2688 2241 
L 2688 2328 
Q 2688 2594 2478 2717 
Q 2269 2841 1825 2841 
Q 1466 2841 1156 2769 
Q 847 2697 581 2553 
L 581 3406 
Q 941 3494 1303 3539 
Q 1666 3584 2028 3584 
Q 2975 3584 3395 3211 
Q 3816 2838 3816 1997 
z
" transform="scale(0.015625)"/>
      <path id="DejaVuSans-Bold-50" d="M 588 4666 
L 2584 4666 
Q 3475 4666 3951 4270 
Q 4428 3875 4428 3144 
Q 4428 2409 3951 2014 
Q 3475 1619 2584 1619 
L 1791 1619 
L 1791 0 
L 588 0 
L 588 4666 
z
M 1791 3794 
L 1791 2491 
L 2456 2491 
Q 2806 2491 2997 2661 
Q 3188 2831 3188 3144 
Q 3188 3456 2997 3625 
Q 2806 3794 2456 3794 
L 1791 3794 
z
" transform="scale(0.015625)"/>
      <path id="DejaVuSans-Bold-6c" d="M 538 4863 
L 1656 4863 
L 1656 0 
L 538 0 
L 538 4863 
z
" transform="scale(0.015625)"/>
      <path id="DejaVuSans-Bold-79" d="M 78 3500 
L 1197 3500 
L 2138 1125 
L 2938 3500 
L 4056 3500 
L 2584 -331 
Q 2363 -916 2067 -1148 
Q 1772 -1381 1288 -1381 
L 641 -1381 
L 641 -647 
L 991 -647 
Q 1275 -647 1404 -556 
Q 1534 -466 1606 -231 
L 1638 -134 
L 78 3500 
z
" transform="scale(0.015625)"/>
      <path id="DejaVuSans-Bold-52" d="M 2297 2597 
Q 2675 2597 2839 2737 
Q 3003 2878 3003 3200 
Q 3003 3519 2839 3656 
Q 2675 3794 2297 3794 
L 1791 3794 
L 1791 2597 
L 2297 2597 
z
M 1791 1766 
L 1791 0 
L 588 0 
L 588 4666 
L 2425 4666 
Q 3347 4666 3776 4356 
Q 4206 4047 4206 3378 
Q 4206 2916 3982 2619 
Q 3759 2322 3309 2181 
Q 3556 2125 3751 1926 
Q 3947 1728 4147 1325 
L 4800 0 
L 3519 0 
L 2950 1159 
Q 2778 1509 2601 1637 
Q 2425 1766 2131 1766 
L 1791 1766 
z
" transform="scale(0.015625)"/>
      <path id="DejaVuSans-Bold-65" d="M 4031 1759 
L 4031 1441 
L 1416 1441 
Q 1456 1047 1700 850 
Q 1944 653 2381 653 
Q 2734 653 3104 758 
Q 3475 863 3866 1075 
L 3866 213 
Q 3469 63 3072 -14 
Q 2675 -91 2278 -91 
Q 1328 -91 801 392 
Q 275 875 275 1747 
Q 275 2603 792 3093 
Q 1309 3584 2216 3584 
Q 3041 3584 3536 3087 
Q 4031 2591 4031 1759 
z
M 2881 2131 
Q 2881 2450 2695 2645 
Q 2509 2841 2209 2841 
Q 1884 2841 1681 2658 
Q 1478 2475 1428 2131 
L 2881 2131 
z
" transform="scale(0.015625)"/>
      <path id="DejaVuSans-Bold-6d" d="M 3781 2919 
Q 3994 3244 4286 3414 
Q 4578 3584 4928 3584 
Q 5531 3584 5847 3212 
Q 6163 2841 6163 2131 
L 6163 0 
L 5038 0 
L 5038 1825 
Q 5041 1866 5042 1909 
Q 5044 1953 5044 2034 
Q 5044 2406 4934 2573 
Q 4825 2741 4581 2741 
Q 4263 2741 4089 2478 
Q 3916 2216 3909 1719 
L 3909 0 
L 2784 0 
L 2784 1825 
Q 2784 2406 2684 2573 
Q 2584 2741 2328 2741 
Q 2006 2741 1831 2477 
Q 1656 2213 1656 1722 
L 1656 0 
L 531 0 
L 531 3500 
L 1656 3500 
L 1656 2988 
Q 1863 3284 2130 3434 
Q 2397 3584 2719 3584 
Q 3081 3584 3359 3409 
Q 3638 3234 3781 2919 
z
" transform="scale(0.015625)"/>
      <path id="DejaVuSans-Bold-2014" d="M 344 2156 
L 6056 2156 
L 6056 1350 
L 344 1350 
L 344 2156 
z
" transform="scale(0.015625)"/>
      <path id="DejaVuSans-Bold-6b" d="M 538 4863 
L 1656 4863 
L 1656 2216 
L 2944 3500 
L 4244 3500 
L 2534 1894 
L 4378 0 
L 3022 0 
L 1656 1459 
L 1656 0 
L 538 0 
L 538 4863 
z
" transform="scale(0.015625)"/>
      <path id="DejaVuSans-Bold-67" d="M 2919 594 
Q 2688 288 2409 144 
Q 2131 0 1766 0 
Q 1125 0 706 504 
Q 288 1009 288 1791 
Q 288 2575 706 3076 
Q 1125 3578 1766 3578 
Q 2131 3578 2409 3434 
Q 2688 3291 2919 2981 
L 2919 3500 
L 4044 3500 
L 4044 353 
Q 4044 -491 3511 -936 
Q 2978 -1381 1966 -1381 
Q 1638 -1381 1331 -1331 
Q 1025 -1281 716 -1178 
L 716 -306 
Q 1009 -475 1290 -558 
Q 1572 -641 1856 -641 
Q 2406 -641 2662 -400 
Q 2919 -159 2919 353 
L 2919 594 
z
M 2181 2772 
Q 1834 2772 1640 2515 
Q 1447 2259 1447 1791 
Q 1447 1309 1634 1061 
Q 1822 813 2181 813 
Q 2531 813 2725 1069 
Q 2919 1325 2919 1791 
Q 2919 2259 2725 2515 
Q 2531 2772 2181 2772 
z
" transform="scale(0.015625)"/>
      <path id="DejaVuSans-Bold-4f" d="M 2719 3878 
Q 2169 3878 1866 3472 
Q 1563 3066 1563 2328 
Q 1563 1594 1866 1187 
Q 2169 781 2719 781 
Q 3272 781 3575 1187 
Q 3878 1594 3878 2328 
Q 3878 3066 3575 3472 
Q 3272 3878 2719 3878 
z
M 2719 4750 
Q 3844 4750 4481 4106 
Q 5119 3463 5119 2328 
Q 5119 1197 4481 553 
Q 3844 -91 2719 -91 
Q 1597 -91 958 553 
Q 319 1197 319 2328 
Q 319 3463 958 4106 
Q 1597 4750 2719 4750 
z
" transform="scale(0.015625)"/>
      <path id="DejaVuSans-Bold-76" d="M 97 3500 
L 1216 3500 
L 2088 1081 
L 2956 3500 
L 4078 3500 
L 2700 0 
L 1472 0 
L 97 3500 
z
" transform="scale(0.015625)"/>
      <path id="DejaVuSans-Bold-77" d="M 225 3500 
L 1313 3500 
L 1900 1088 
L 2491 3500 
L 3425 3500 
L 4013 1113 
L 4603 3500 
L 5691 3500 
L 4769 0 
L 3547 0 
L 2956 2406 
L 2369 0 
L 1147 0 
L 225 3500 
z
" transform="scale(0.015625)"/>
     </defs>
     <use xlink:href="#DejaVuSans-Bold-53"/>
     <use xlink:href="#DejaVuSans-Bold-6f" transform="translate(72.021484 0)"/>
     <use xlink:href="#DejaVuSans-Bold-75" transform="translate(140.722656 0)"/>
     <use xlink:href="#DejaVuSans-Bold-74" transform="translate(211.914062 0)"/>
     <use xlink:href="#DejaVuSans-Bold-68" transform="translate(259.716797 0)"/>
     <use xlink:href="#DejaVuSans-Bold-20" transform="translate(330.908203 0)"/>
     <use xlink:href="#DejaVuSans-Bold-41" transform="translate(365.722656 0)"/>
     <use xlink:href="#DejaVuSans-Bold-66" transform="translate(443.115234 0)"/>
     <use xlink:href="#DejaVuSans-Bold-72" transform="translate(486.621094 0)"/>
     <use xlink:href="#DejaVuSans-Bold-69" transform="translate(535.9375 0)"/>
     <use xlink:href="#DejaVuSans-Bold-63" transform="translate(570.214844 0)"/>
     <use xlink:href="#DejaVuSans-Bold-61" transform="translate(629.492188 0)"/>
     <use xlink:href="#DejaVuSans-Bold-20" transform="translate(696.972656 0)"/>
     <use xlink:href="#DejaVuSans-Bold-50" transform="translate(731.787109 0)"/>
     <use xlink:href="#DejaVuSans-Bold-6f" transform="translate(805.078125 0)"/>
     <use xlink:href="#DejaVuSans-Bold-6c" transform="translate(873.779297 0)"/>
     <use xlink:href="#DejaVuSans-Bold-69" transform="translate(908.056641 0)"/>
     <use xlink:href="#DejaVuSans-Bold-63" transform="translate(942.333984 0)"/>
     <use xlink:href="#DejaVuSans-Bold-79" transform="translate(1001.611328 0)"/>
     <use xlink:href="#DejaVuSans-Bold-20" transform="translate(1066.796875 0)"/>
     <use xlink:href="#DejaVuSans-Bold-52" transform="translate(1101.611328 0)"/>
     <use xlink:href="#DejaVuSans-Bold-65" transform="translate(1178.613281 0)"/>
     <use xlink:href="#DejaVuSans-Bold-66" transform="translate(1246.435547 0)"/>
     <use xlink:href="#DejaVuSans-Bold-6f" transform="translate(1289.941406 0)"/>
     <use xlink:href="#DejaVuSans-Bold-72" transform="translate(1358.642578 0)"/>
     <use xlink:href="#DejaVuSans-Bold-6d" transform="translate(1407.958984 0)"/>
     <use xlink:href="#DejaVuSans-Bold-20" transform="translate(1512.158203 0)"/>
     <use xlink:href="#DejaVuSans-Bold-2014" transform="translate(1546.972656 0)"/>
     <use xlink:href="#DejaVuSans-Bold-20" transform="translate(1646.972656 0)"/>
     <use xlink:href="#DejaVuSans-Bold-50" transform="translate(1681.787109 0)"/>
     <use xlink:href="#DejaVuSans-Bold-61" transform="translate(1752.453125 0)"/>
     <use xlink:href="#DejaVuSans-Bold-63" transform="translate(1819.933594 0)"/>
     <use xlink:href="#DejaVuSans-Bold-6b" transform="translate(1879.210938 0)"/>
     <use xlink:href="#DejaVuSans-Bold-61" transform="translate(1945.714844 0)"/>
     <use xlink:href="#DejaVuSans-Bold-67" transform="translate(2013.195312 0)"/>
     <use xlink:href="#DejaVuSans-Bold-65" transform="translate(2084.777344 0)"/>
     <use xlink:href="#DejaVuSans-Bold-20" transform="translate(2152.599609 0)"/>
     <use xlink:href="#DejaVuSans-Bold-4f" transform="translate(2187.414062 0)"/>
     <use xlink:href="#DejaVuSans-Bold-76" transform="translate(2272.423828 0)"/>
     <use xlink:href="#DejaVuSans-Bold-65" transform="translate(2337.609375 0)"/>
     <use xlink:href="#DejaVuSans-Bold-72" transform="translate(2405.431641 0)"/>
     <use xlink:href="#DejaVuSans-Bold-76" transform="translate(2454.748047 0)"/>
     <use xlink:href="#DejaVuSans-Bold-69" transform="translate(2519.933594 0)"/>
     <use xlink:href="#DejaVuSans-Bold-65" transform="translate(2554.210938 0)"/>
     <use xlink:href="#DejaVuSans-Bold-77" transform="translate(2622.033203 0)"/>
    </g>
    <!-- Arrows show cross-package enabling dependencies  |  Numbers = dependency links -->
    <g style="fill: #ecf0f1" transform="translate(262.50328 37.483) scale(0.16 -0.16)">
     <defs>
      <path id="DejaVuSans-Bold-73" d="M 3272 3391 
L 3272 2541 
Q 2913 2691 2578 2766 
Q 2244 2841 1947 2841 
Q 1628 2841 1473 2761 
Q 1319 2681 1319 2516 
Q 1319 2381 1436 2309 
Q 1553 2238 1856 2203 
L 2053 2175 
Q 2913 2066 3209 1816 
Q 3506 1566 3506 1031 
Q 3506 472 3093 190 
Q 2681 -91 1863 -91 
Q 1516 -91 1145 -36 
Q 775 19 384 128 
L 384 978 
Q 719 816 1070 734 
Q 1422 653 1784 653 
Q 2113 653 2278 743 
Q 2444 834 2444 1013 
Q 2444 1163 2330 1236 
Q 2216 1309 1875 1350 
L 1678 1375 
Q 931 1469 631 1722 
Q 331 1975 331 2491 
Q 331 3047 712 3315 
Q 1094 3584 1881 3584 
Q 2191 3584 2531 3537 
Q 2872 3491 3272 3391 
z
" transform="scale(0.015625)"/>
      <path id="DejaVuSans-Bold-2d" d="M 347 2297 
L 2309 2297 
L 2309 1388 
L 347 1388 
L 347 2297 
z
" transform="scale(0.015625)"/>
      <path id="DejaVuSans-Bold-70" d="M 1656 506 
L 1656 -1331 
L 538 -1331 
L 538 3500 
L 1656 3500 
L 1656 2988 
Q 1888 3294 2169 3439 
Q 2450 3584 2816 3584 
Q 3463 3584 3878 3070 
Q 4294 2556 4294 1747 
Q 4294 938 3878 423 
Q 3463 -91 2816 -91 
Q 2450 -91 2169 54 
Q 1888 200 1656 506 
z
M 2400 2772 
Q 2041 2772 1848 2508 
Q 1656 2244 1656 1747 
Q 1656 1250 1848 986 
Q 2041 722 2400 722 
Q 2759 722 2948 984 
Q 3138 1247 3138 1747 
Q 3138 2247 2948 2509 
Q 2759 2772 2400 2772 
z
" transform="scale(0.015625)"/>
      <path id="DejaVuSans-Bold-6e" d="M 4056 2131 
L 4056 0 
L 2931 0 
L 2931 347 
L 2931 1631 
Q 2931 2084 2911 2256 
Q 2891 2428 2841 2509 
Q 2775 2619 2662 2680 
Q 2550 2741 2406 2741 
Q 2056 2741 1856 2470 
Q 1656 2200 1656 1722 
L 1656 0 
L 538 0 
L 538 3500 
L 1656 3500 
L 1656 2988 
Q 1909 3294 2193 3439 
Q 2478 3584 2822 3584 
Q 3428 3584 3742 3212 
Q 4056 2841 4056 2131 
z
" transform="scale(0.015625)"/>
      <path id="DejaVuSans-Bold-62" d="M 2400 722 
Q 2759 722 2948 984 
Q 3138 1247 3138 1747 
Q 3138 2247 2948 2509 
Q 2759 2772 2400 2772 
Q 2041 2772 1848 2508 
Q 1656 2244 1656 1747 
Q 1656 1250 1848 986 
Q 2041 722 2400 722 
z
M 1656 2988 
Q 1888 3294 2169 3439 
Q 2450 3584 2816 3584 
Q 3463 3584 3878 3070 
Q 4294 2556 4294 1747 
Q 4294 938 3878 423 
Q 3463 -91 2816 -91 
Q 2450 -91 2169 54 
Q 1888 200 1656 506 
L 1656 0 
L 538 0 
L 538 4863 
L 1656 4863 
L 1656 2988 
z
" transform="scale(0.015625)"/>
      <path id="DejaVuSans-Bold-64" d="M 2919 2988 
L 2919 4863 
L 4044 4863 
L 4044 0 
L 2919 0 
L 2919 506 
Q 2688 197 2409 53 
Q 2131 -91 1766 -91 
Q 1119 -91 703 423 
Q 288 938 288 1747 
Q 288 2556 703 3070 
Q 1119 3584 1766 3584 
Q 2128 3584 2408 3439 
Q 2688 3294 2919 2988 
z
M 2181 722 
Q 2541 722 2730 984 
Q 2919 1247 2919 1747 
Q 2919 2247 2730 2509 
Q 2541 2772 2181 2772 
Q 1825 2772 1636 2509 
Q 1447 2247 1447 1747 
Q 1447 1247 1636 984 
Q 1825 722 2181 722 
z
" transform="scale(0.015625)"/>
      <path id="DejaVuSans-Bold-7c" d="M 1522 4891 
L 1522 -1509 
L 813 -1509 
L 813 4891 
L 1522 4891 
z
" transform="scale(0.015625)"/>
      <path id="DejaVuSans-Bold-4e" d="M 588 4666 
L 1931 4666 
L 3628 1466 
L 3628 4666 
L 4769 4666 
L 4769 0 
L 3425 0 
L 1728 3200 
L 1728 0 
L 588 0 
L 588 4666 
z
" transform="scale(0.015625)"/>
      <path id="DejaVuSans-Bold-3d" d="M 678 3084 
L 4684 3084 
L 4684 2350 
L 678 2350 
L 678 3084 
z
M 678 1663 
L 4684 1663 
L 4684 922 
L 678 922 
L 678 1663 
z
" transform="scale(0.015625)"/>
     </defs>
     <use xlink:href="#DejaVuSans-Bold-41"/>
     <use xlink:href="#DejaVuSans-Bold-72" transform="translate(77.392578 0)"/>
     <use xlink:href="#DejaVuSans-Bold-72" transform="translate(126.708984 0)"/>
     <use xlink:href="#DejaVuSans-Bold-6f" transform="translate(176.025391 0)"/>
     <use xlink:href="#DejaVuSans-Bold-77" transform="translate(244.726562 0)"/>
     <use xlink:href="#DejaVuSans-Bold-73" transform="translate(337.109375 0)"/>
     <use xlink:href="#DejaVuSans-Bold-20" transform="translate(396.630859 0)"/>
     <use xlink:href="#DejaVuSans-Bold-73" transform="translate(431.445312 0)"/>
     <use xlink:href="#DejaVuSans-Bold-68" transform="translate(490.966797 0)"/>
     <use xlink:href="#DejaVuSans-Bold-6f" transform="translate(562.158203 0)"/>
     <use xlink:href="#DejaVuSans-Bold-77" transform="translate(630.859375 0)"/>
     <use xlink:href="#DejaVuSans-Bold-20" transform="translate(723.242188 0)"/>
     <use xlink:href="#DejaVuSans-Bold-63" transform="translate(758.056641 0)"/>
     <use xlink:href="#DejaVuSans-Bold-72" transform="translate(817.333984 0)"/>
     <use xlink:href="#DejaVuSans-Bold-6f" transform="translate(866.650391 0)"/>
     <use xlink:href="#DejaVuSans-Bold-73" transform="translate(935.351562 0)"/>
     <use xlink:href="#DejaVuSans-Bold-73" transform="translate(994.873047 0)"/>
     <use xlink:href="#DejaVuSans-Bold-2d" transform="translate(1054.394531 0)"/>
     <use xlink:href="#DejaVuSans-Bold-70" transform="translate(1095.898438 0)"/>
     <use xlink:href="#DejaVuSans-Bold-61" transform="translate(1167.480469 0)"/>
     <use xlink:href="#DejaVuSans-Bold-63" transform="translate(1234.960938 0)"/>
     <use xlink:href="#DejaVuSans-Bold-6b" transform="translate(1294.238281 0)"/>
     <use xlink:href="#DejaVuSans-Bold-61" transform="translate(1360.742188 0)"/>
     <use xlink:href="#DejaVuSans-Bold-67" transform="translate(1428.222656 0)"/>
     <use xlink:href="#DejaVuSans-Bold-65" transform="translate(1499.804688 0)"/>
     <use xlink:href="#DejaVuSans-Bold-20" transform="translate(1567.626953 0)"/>
     <use xlink:href="#DejaVuSans-Bold-65" transform="translate(1602.441406 0)"/>
     <use xlink:href="#DejaVuSans-Bold-6e" transform="translate(1670.263672 0)"/>
     <use xlink:href="#DejaVuSans-Bold-61" transform="translate(1741.455078 0)"/>
     <use xlink:href="#DejaVuSans-Bold-62" transform="translate(1808.935547 0)"/>
     <use xlink:href="#DejaVuSans-Bold-6c" transform="translate(1880.517578 0)"/>
     <use xlink:href="#DejaVuSans-Bold-69" transform="translate(1914.794922 0)"/>
     <use xlink:href="#DejaVuSans-Bold-6e" transform="translate(1949.072266 0)"/>
     <use xlink:href="#DejaVuSans-Bold-67" transform="translate(2020.263672 0)"/>
     <use xlink:href="#DejaVuSans-Bold-20" transform="translate(2091.845703 0)"/>
     <use xlink:href="#DejaVuSans-Bold-64" transform="translate(2126.660156 0)"/>
     <use xlink:href="#DejaVuSans-Bold-65" transform="translate(2198.242188 0)"/>
     <use xlink:href="#DejaVuSans-Bold-70" transform="translate(2266.064453 0)"/>
     <use xlink:href="#DejaVuSans-Bold-65" transform="translate(2337.646484 0)"/>
     <use xlink:href="#DejaVuSans-Bold-6e" transform="translate(2405.46875 0)"/>
     <use xlink:href="#DejaVuSans-Bold-64" transform="translate(2476.660156 0)"/>
     <use xlink:href="#DejaVuSans-Bold-65" transform="translate(2548.242188 0)"/>
     <use xlink:href="#DejaVuSans-Bold-6e" transform="translate(2616.064453 0)"/>
     <use xlink:href="#DejaVuSans-Bold-63" transform="translate(2687.255859 0)"/>
     <use xlink:href="#DejaVuSans-Bold-69" transform="translate(2746.533203 0)"/>
     <use xlink:href="#DejaVuSans-Bold-65" transform="translate(2780.810547 0)"/>
     <use xlink:href="#DejaVuSans-Bold-73" transform="translate(2848.632812 0)"/>
     <use xlink:href="#DejaVuSans-Bold-20" transform="translate(2908.154297 0)"/>
     <use xlink:href="#DejaVuSans-Bold-20" transform="translate(2942.96875 0)"/>
     <use xlink:href="#DejaVuSans-Bold-7c" transform="translate(2977.783203 0)"/>
     <use xlink:href="#DejaVuSans-Bold-20" transform="translate(3014.306641 0)"/>
     <use xlink:href="#DejaVuSans-Bold-20" transform="translate(3049.121094 0)"/>
     <use xlink:href="#DejaVuSans-Bold-4e" transform="translate(3083.935547 0)"/>
     <use xlink:href="#DejaVuSans-Bold-75" transform="translate(3167.626953 0)"/>
     <use xlink:href="#DejaVuSans-Bold-6d" transform="translate(3238.818359 0)"/>
     <use xlink:href="#DejaVuSans-Bold-62" transform="translate(3343.017578 0)"/>
     <use xlink:href="#DejaVuSans-Bold-65" transform="translate(3414.599609 0)"/>
     <use xlink:href="#DejaVuSans-Bold-72" transform="translate(3482.421875 0)"/>
     <use xlink:href="#DejaVuSans-Bold-73" transform="translate(3531.738281 0)"/>
     <use xlink:href="#DejaVuSans-Bold-20" transform="translate(3591.259766 0)"/>
     <use xlink:href="#DejaVuSans-Bold-3d" transform="translate(3626.074219 0)"/>
     <use xlink:href="#DejaVuSans-Bold-20" transform="translate(3709.863281 0)"/>
     <use xlink:href="#DejaVuSans-Bold-64" transform="translate(3744.677734 0)"/>
     <use xlink:href="#DejaVuSans-Bold-65" transform="translate(3816.259766 0)"/>
     <use xlink:href="#DejaVuSans-Bold-70" transform="translate(3884.082031 0)"/>
     <use xlink:href="#DejaVuSans-Bold-65" transform="translate(3955.664062 0)"/>
     <use xlink:href="#DejaVuSans-Bold-6e" transform="translate(4023.486328 0)"/>
     <use xlink:href="#DejaVuSans-Bold-64" transform="translate(4094.677734 0)"/>
     <use xlink:href="#DejaVuSans-Bold-65" transform="translate(4166.259766 0)"/>
     <use xlink:href="#DejaVuSans-Bold-6e" transform="translate(4234.082031 0)"/>
     <use xlink:href="#DejaVuSans-Bold-63" transform="translate(4305.273438 0)"/>
     <use xlink:href="#DejaVuSans-Bold-79" transform="translate(4364.550781 0)"/>
     <use xlink:href="#DejaVuSans-Bold-20" transform="translate(4429.736328 0)"/>
     <use xlink:href="#DejaVuSans-Bold-6c" transform="translate(4464.550781 0)"/>
     <use xlink:href="#DejaVuSans-Bold-69" transform="translate(4498.828125 0)"/>
     <use xlink:href="#DejaVuSans-Bold-6e" transform="translate(4533.105469 0)"/>
     <use xlink:href="#DejaVuSans-Bold-6b" transform="translate(4604.296875 0)"/>
     <use xlink:href="#DejaVuSans-Bold-73" transform="translate(4670.800781 0)"/>
    </g>
   </g>
   <g id="text_9">
    <!-- Infrastructure Unblock -->
    <g style="fill: #ffffff" transform="translate(238.680695 542.387557) scale(0.13 -0.13)">
     <defs>
      <path id="DejaVuSans-Bold-49" d="M 588 4666 
L 1791 4666 
L 1791 0 
L 588 0 
L 588 4666 
z
" transform="scale(0.015625)"/>
      <path id="DejaVuSans-Bold-55" d="M 588 4666 
L 1791 4666 
L 1791 1869 
Q 1791 1291 1980 1042 
Q 2169 794 2597 794 
Q 3028 794 3217 1042 
Q 3406 1291 3406 1869 
L 3406 4666 
L 4609 4666 
L 4609 1869 
Q 4609 878 4112 393 
Q 3616 -91 2597 -91 
Q 1581 -91 1084 393 
Q 588 878 588 1869 
L 588 4666 
z
" transform="scale(0.015625)"/>
     </defs>
     <use xlink:href="#DejaVuSans-Bold-49"/>
     <use xlink:href="#DejaVuSans-Bold-6e" transform="translate(37.207031 0)"/>
     <use xlink:href="#DejaVuSans-Bold-66" transform="translate(108.398438 0)"/>
     <use xlink:href="#DejaVuSans-Bold-72" transform="translate(151.904297 0)"/>
     <use xlink:href="#DejaVuSans-Bold-61" transform="translate(201.220703 0)"/>
     <use xlink:href="#DejaVuSans-Bold-73" transform="translate(268.701172 0)"/>
     <use xlink:href="#DejaVuSans-Bold-74" transform="translate(328.222656 0)"/>
     <use xlink:href="#DejaVuSans-Bold-72" transform="translate(376.025391 0)"/>
     <use xlink:href="#DejaVuSans-Bold-75" transform="translate(425.341797 0)"/>
     <use xlink:href="#DejaVuSans-Bold-63" transform="translate(496.533203 0)"/>
     <use xlink:href="#DejaVuSans-Bold-74" transform="translate(555.810547 0)"/>
     <use xlink:href="#DejaVuSans-Bold-75" transform="translate(603.613281 0)"/>
     <use xlink:href="#DejaVuSans-Bold-72" transform="translate(674.804688 0)"/>
     <use xlink:href="#DejaVuSans-Bold-65" transform="translate(724.121094 0)"/>
     <use xlink:href="#DejaVuSans-Bold-20" transform="translate(791.943359 0)"/>
     <use xlink:href="#DejaVuSans-Bold-55" transform="translate(826.757812 0)"/>
     <use xlink:href="#DejaVuSans-Bold-6e" transform="translate(907.958984 0)"/>
     <use xlink:href="#DejaVuSans-Bold-62" transform="translate(979.150391 0)"/>
     <use xlink:href="#DejaVuSans-Bold-6c" transform="translate(1050.732422 0)"/>
     <use xlink:href="#DejaVuSans-Bold-6f" transform="translate(1085.009766 0)"/>
     <use xlink:href="#DejaVuSans-Bold-63" transform="translate(1153.710938 0)"/>
     <use xlink:href="#DejaVuSans-Bold-6b" transform="translate(1212.988281 0)"/>
    </g>
   </g>
   <g id="text_10">
    <!-- 36 reforms -->
    <g style="fill: #ffffff; opacity: 0.9" transform="translate(294.611554 625.428184) scale(0.1 -0.1)">
     <defs>
      <path id="DejaVuSans-33" d="M 2597 2516 
Q 3050 2419 3304 2112 
Q 3559 1806 3559 1356 
Q 3559 666 3084 287 
Q 2609 -91 1734 -91 
Q 1441 -91 1130 -33 
Q 819 25 488 141 
L 488 750 
Q 750 597 1062 519 
Q 1375 441 1716 441 
Q 2309 441 2620 675 
Q 2931 909 2931 1356 
Q 2931 1769 2642 2001 
Q 2353 2234 1838 2234 
L 1294 2234 
L 1294 2753 
L 1863 2753 
Q 2328 2753 2575 2939 
Q 2822 3125 2822 3475 
Q 2822 3834 2567 4026 
Q 2313 4219 1838 4219 
Q 1578 4219 1281 4162 
Q 984 4106 628 3988 
L 628 4550 
Q 988 4650 1302 4700 
Q 1616 4750 1894 4750 
Q 2613 4750 3031 4423 
Q 3450 4097 3450 3541 
Q 3450 3153 3228 2886 
Q 3006 2619 2597 2516 
z
" transform="scale(0.015625)"/>
      <path id="DejaVuSans-20" transform="scale(0.015625)"/>
      <path id="DejaVuSans-72" d="M 2631 2963 
Q 2534 3019 2420 3045 
Q 2306 3072 2169 3072 
Q 1681 3072 1420 2755 
Q 1159 2438 1159 1844 
L 1159 0 
L 581 0 
L 581 3500 
L 1159 3500 
L 1159 2956 
Q 1341 3275 1631 3429 
Q 1922 3584 2338 3584 
Q 2397 3584 2469 3576 
Q 2541 3569 2628 3553 
L 2631 2963 
z
" transform="scale(0.015625)"/>
      <path id="DejaVuSans-65" d="M 3597 1894 
L 3597 1613 
L 953 1613 
Q 991 1019 1311 708 
Q 1631 397 2203 397 
Q 2534 397 2845 478 
Q 3156 559 3463 722 
L 3463 178 
Q 3153 47 2828 -22 
Q 2503 -91 2169 -91 
Q 1331 -91 842 396 
Q 353 884 353 1716 
Q 353 2575 817 3079 
Q 1281 3584 2069 3584 
Q 2775 3584 3186 3129 
Q 3597 2675 3597 1894 
z
M 3022 2063 
Q 3016 2534 2758 2815 
Q 2500 3097 2075 3097 
Q 1594 3097 1305 2825 
Q 1016 2553 972 2059 
L 3022 2063 
z
" transform="scale(0.015625)"/>
      <path id="DejaVuSans-66" d="M 2375 4863 
L 2375 4384 
L 1825 4384 
Q 1516 4384 1395 4259 
Q 1275 4134 1275 3809 
L 1275 3500 
L 2222 3500 
L 2222 3053 
L 1275 3053 
L 1275 0 
L 697 0 
L 697 3053 
L 147 3053 
L 147 3500 
L 697 3500 
L 697 3744 
Q 697 4328 969 4595 
Q 1241 4863 1831 4863 
L 2375 4863 
z
" transform="scale(0.015625)"/>
      <path id="DejaVuSans-6f" d="M 1959 3097 
Q 1497 3097 1228 2736 
Q 959 2375 959 1747 
Q 959 1119 1226 758 
Q 1494 397 1959 397 
Q 2419 397 2687 759 
Q 2956 1122 2956 1747 
Q 2956 2369 2687 2733 
Q 2419 3097 1959 3097 
z
M 1959 3584 
Q 2709 3584 3137 3096 
Q 3566 2609 3566 1747 
Q 3566 888 3137 398 
Q 2709 -91 1959 -91 
Q 1206 -91 779 398 
Q 353 888 353 1747 
Q 353 2609 779 3096 
Q 1206 3584 1959 3584 
z
" transform="scale(0.015625)"/>
      <path id="DejaVuSans-6d" d="M 3328 2828 
Q 3544 3216 3844 3400 
Q 4144 3584 4550 3584 
Q 5097 3584 5394 3201 
Q 5691 2819 5691 2113 
L 5691 0 
L 5113 0 
L 5113 2094 
Q 5113 2597 4934 2840 
Q 4756 3084 4391 3084 
Q 3944 3084 3684 2787 
Q 3425 2491 3425 1978 
L 3425 0 
L 2847 0 
L 2847 2094 
Q 2847 2600 2669 2842 
Q 2491 3084 2119 3084 
Q 1678 3084 1418 2786 
Q 1159 2488 1159 1978 
L 1159 0 
L 581 0 
L 581 3500 
L 1159 3500 
L 1159 2956 
Q 1356 3278 1631 3431 
Q 1906 3584 2284 3584 
Q 2666 3584 2933 3390 
Q 3200 3197 3328 2828 
z
" transform="scale(0.015625)"/>
      <path id="DejaVuSans-73" d="M 2834 3397 
L 2834 2853 
Q 2591 2978 2328 3040 
Q 2066 3103 1784 3103 
Q 1356 3103 1142 2972 
Q 928 2841 928 2578 
Q 928 2378 1081 2264 
Q 1234 2150 1697 2047 
L 1894 2003 
Q 2506 1872 2764 1633 
Q 3022 1394 3022 966 
Q 3022 478 2636 193 
Q 2250 -91 1575 -91 
Q 1294 -91 989 -36 
Q 684 19 347 128 
L 347 722 
Q 666 556 975 473 
Q 1284 391 1588 391 
Q 1994 391 2212 530 
Q 2431 669 2431 922 
Q 2431 1156 2273 1281 
Q 2116 1406 1581 1522 
L 1381 1569 
Q 847 1681 609 1914 
Q 372 2147 372 2553 
Q 372 3047 722 3315 
Q 1072 3584 1716 3584 
Q 2034 3584 2315 3537 
Q 2597 3491 2834 3397 
z
" transform="scale(0.015625)"/>
     </defs>
     <use xlink:href="#DejaVuSans-33"/>
     <use xlink:href="#DejaVuSans-36" transform="translate(63.623047 0)"/>
     <use xlink:href="#DejaVuSans-20" transform="translate(127.246094 0)"/>
     <use xlink:href="#DejaVuSans-72" transform="translate(159.033203 0)"/>
     <use xlink:href="#DejaVuSans-65" transform="translate(197.896484 0)"/>
     <use xlink:href="#DejaVuSans-66" transform="translate(259.419922 0)"/>
     <use xlink:href="#DejaVuSans-6f" transform="translate(294.625 0)"/>
     <use xlink:href="#DejaVuSans-72" transform="translate(355.806641 0)"/>
     <use xlink:href="#DejaVuSans-6d" transform="translate(395.169922 0)"/>
     <use xlink:href="#DejaVuSans-73" transform="translate(492.582031 0)"/>
    </g>
    <!-- ✓ 9  ≈ 16  ✗ 11 -->
    <g style="fill: #ffffff; opacity: 0.9" transform="translate(282.245929 636.625996) scale(0.1 -0.1)">
     <defs>
      <path id="DejaVuSans-2713" d="M 1416 2044 
Q 1538 2044 1600 1844 
Q 1725 1469 1778 1469 
Q 1819 1469 1863 1531 
Q 2741 2938 3488 3806 
Q 3681 4031 4103 4031 
Q 4203 4031 4237 4012 
Q 4272 3994 4272 3966 
Q 4272 3922 4169 3794 
Q 2963 2344 1931 731 
Q 1859 619 1638 619 
Q 1413 619 1372 638 
Q 1266 684 1122 1116 
Q 959 1594 959 1716 
Q 959 1847 1178 1969 
Q 1313 2044 1416 2044 
z
" transform="scale(0.015625)"/>
      <path id="DejaVuSans-39" d="M 703 97 
L 703 672 
Q 941 559 1184 500 
Q 1428 441 1663 441 
Q 2288 441 2617 861 
Q 2947 1281 2994 2138 
Q 2813 1869 2534 1725 
Q 2256 1581 1919 1581 
Q 1219 1581 811 2004 
Q 403 2428 403 3163 
Q 403 3881 828 4315 
Q 1253 4750 1959 4750 
Q 2769 4750 3195 4129 
Q 3622 3509 3622 2328 
Q 3622 1225 3098 567 
Q 2575 -91 1691 -91 
Q 1453 -91 1209 -44 
Q 966 3 703 97 
z
M 1959 2075 
Q 2384 2075 2632 2365 
Q 2881 2656 2881 3163 
Q 2881 3666 2632 3958 
Q 2384 4250 1959 4250 
Q 1534 4250 1286 3958 
Q 1038 3666 1038 3163 
Q 1038 2656 1286 2365 
Q 1534 2075 1959 2075 
z
" transform="scale(0.015625)"/>
      <path id="DejaVuSans-2248" d="M 4684 1947 
L 4684 1388 
Q 4356 1144 4076 1036 
Q 3797 928 3494 928 
Q 3150 928 2694 1113 
Q 2663 1125 2641 1134 
Q 2622 1141 2575 1159 
Q 2091 1350 1797 1350 
Q 1522 1350 1253 1231 
Q 984 1113 678 850 
L 678 1409 
Q 1006 1653 1286 1761 
Q 1566 1869 1869 1869 
Q 2213 1869 2672 1684 
Q 2706 1669 2722 1663 
Q 2741 1656 2788 1638 
Q 3272 1447 3566 1447 
Q 3834 1447 4098 1564 
Q 4363 1681 4684 1947 
z
M 4684 3163 
L 4684 2606 
Q 4356 2359 4076 2251 
Q 3797 2144 3494 2144 
Q 3150 2144 2694 2328 
Q 2663 2341 2641 2350 
Q 2622 2356 2575 2375 
Q 2091 2566 1797 2566 
Q 1522 2566 1253 2447 
Q 984 2328 678 2069 
L 678 2625 
Q 1006 2869 1286 2976 
Q 1566 3084 1869 3084 
Q 2213 3084 2672 2900 
Q 2703 2888 2719 2881 
Q 2741 2872 2788 2853 
Q 3272 2663 3566 2663 
Q 3834 2663 4098 2780 
Q 4363 2897 4684 3163 
z
" transform="scale(0.015625)"/>
      <path id="DejaVuSans-2717" d="M 3975 4688 
Q 4006 4688 4056 4638 
Q 4109 4588 4166 4506 
Q 4256 4666 4309 4666 
Q 4356 4666 4438 4581 
Q 4488 4528 4488 4463 
Q 4488 4378 4419 4306 
Q 3769 3600 3156 2753 
Q 3409 2134 3856 1388 
Q 3894 1325 3894 1288 
Q 3894 1216 3800 1138 
L 3700 1069 
Q 3713 1031 3713 969 
Q 3713 875 3644 825 
Q 3563 769 3525 769 
Q 3444 769 3381 850 
Q 3006 1331 2606 1981 
Q 2069 1281 1375 113 
Q 1275 -56 1038 -56 
Q 925 -56 913 75 
Q 753 163 753 353 
Q 753 603 788 700 
Q 803 744 888 875 
Q 1525 1869 2238 2700 
Q 1856 3606 1731 4097 
Q 1703 4206 1703 4238 
Q 1703 4281 1759 4363 
Q 1819 4444 1869 4444 
Q 1916 4444 1988 4353 
Q 2016 4406 2056 4444 
Q 2113 4494 2200 4494 
Q 2300 4494 2331 4400 
Q 2500 3875 2775 3400 
Q 3219 3975 3856 4613 
Q 3931 4688 3975 4688 
z
" transform="scale(0.015625)"/>
     </defs>
     <use xlink:href="#DejaVuSans-2713"/>
     <use xlink:href="#DejaVuSans-20" transform="translate(83.789062 0)"/>
     <use xlink:href="#DejaVuSans-39" transform="translate(115.576172 0)"/>
     <use xlink:href="#DejaVuSans-20" transform="translate(179.199219 0)"/>
     <use xlink:href="#DejaVuSans-20" transform="translate(210.986328 0)"/>
     <use xlink:href="#DejaVuSans-2248" transform="translate(242.773438 0)"/>
     <use xlink:href="#DejaVuSans-20" transform="translate(326.5625 0)"/>
     <use xlink:href="#DejaVuSans-31" transform="translate(358.349609 0)"/>
     <use xlink:href="#DejaVuSans-36" transform="translate(421.972656 0)"/>
     <use xlink:href="#DejaVuSans-20" transform="translate(485.595703 0)"/>
     <use xlink:href="#DejaVuSans-20" transform="translate(517.382812 0)"/>
     <use xlink:href="#DejaVuSans-2717" transform="translate(549.169922 0)"/>
     <use xlink:href="#DejaVuSans-20" transform="translate(632.958984 0)"/>
     <use xlink:href="#DejaVuSans-31" transform="translate(664.746094 0)"/>
     <use xlink:href="#DejaVuSans-31" transform="translate(728.369141 0)"/>
    </g>
   </g>
   <g id="text_11">
    <!-- SMME &amp; Employment -->
    <g style="fill: #ffffff" transform="translate(760.16501 917.440025) scale(0.13 -0.13)">
     <defs>
      <path id="DejaVuSans-Bold-4d" d="M 588 4666 
L 2119 4666 
L 3181 2169 
L 4250 4666 
L 5778 4666 
L 5778 0 
L 4641 0 
L 4641 3413 
L 3566 897 
L 2803 897 
L 1728 3413 
L 1728 0 
L 588 0 
L 588 4666 
z
" transform="scale(0.015625)"/>
      <path id="DejaVuSans-Bold-45" d="M 588 4666 
L 3834 4666 
L 3834 3756 
L 1791 3756 
L 1791 2888 
L 3713 2888 
L 3713 1978 
L 1791 1978 
L 1791 909 
L 3903 909 
L 3903 0 
L 588 0 
L 588 4666 
z
" transform="scale(0.015625)"/>
      <path id="DejaVuSans-Bold-26" d="M 2497 3097 
L 3775 1691 
Q 3941 1909 4027 2181 
Q 4113 2453 4128 2797 
L 5100 2797 
Q 5053 2228 4879 1784 
Q 4706 1341 4397 1006 
L 5313 0 
L 3988 0 
L 3681 341 
Q 3353 122 2990 15 
Q 2628 -91 2222 -91 
Q 1400 -91 892 342 
Q 384 775 384 1459 
Q 384 1916 607 2267 
Q 831 2619 1338 2950 
Q 1206 3116 1143 3281 
Q 1081 3447 1081 3628 
Q 1081 4138 1478 4444 
Q 1875 4750 2534 4750 
Q 2819 4750 3126 4704 
Q 3434 4659 3769 4569 
L 3769 3700 
Q 3475 3850 3212 3922 
Q 2950 3994 2700 3994 
Q 2459 3994 2326 3901 
Q 2194 3809 2194 3641 
Q 2194 3534 2270 3398 
Q 2347 3263 2497 3097 
z
M 1875 2322 
Q 1672 2175 1569 1989 
Q 1466 1803 1466 1581 
Q 1466 1222 1731 969 
Q 1997 716 2369 716 
Q 2578 716 2759 780 
Q 2941 844 3097 972 
L 1875 2322 
z
" transform="scale(0.015625)"/>
     </defs>
     <use xlink:href="#DejaVuSans-Bold-53"/>
     <use xlink:href="#DejaVuSans-Bold-4d" transform="translate(72.021484 0)"/>
     <use xlink:href="#DejaVuSans-Bold-4d" transform="translate(171.533203 0)"/>
     <use xlink:href="#DejaVuSans-Bold-45" transform="translate(271.044922 0)"/>
     <use xlink:href="#DejaVuSans-Bold-20" transform="translate(339.355469 0)"/>
     <use xlink:href="#DejaVuSans-Bold-26" transform="translate(374.169922 0)"/>
     <use xlink:href="#DejaVuSans-Bold-20" transform="translate(461.376953 0)"/>
     <use xlink:href="#DejaVuSans-Bold-45" transform="translate(496.191406 0)"/>
     <use xlink:href="#DejaVuSans-Bold-6d" transform="translate(564.501953 0)"/>
     <use xlink:href="#DejaVuSans-Bold-70" transform="translate(668.701172 0)"/>
     <use xlink:href="#DejaVuSans-Bold-6c" transform="translate(740.283203 0)"/>
     <use xlink:href="#DejaVuSans-Bold-6f" transform="translate(774.560547 0)"/>
     <use xlink:href="#DejaVuSans-Bold-79" transform="translate(843.261719 0)"/>
     <use xlink:href="#DejaVuSans-Bold-6d" transform="translate(908.447266 0)"/>
     <use xlink:href="#DejaVuSans-Bold-65" transform="translate(1012.646484 0)"/>
     <use xlink:href="#DejaVuSans-Bold-6e" transform="translate(1080.46875 0)"/>
     <use xlink:href="#DejaVuSans-Bold-74" transform="translate(1151.660156 0)"/>
    </g>
   </g>
   <g id="text_12">
    <!-- 16 reforms -->
    <g style="fill: #ffffff; opacity: 0.9" transform="translate(810.896885 1000.531433) scale(0.1 -0.1)">
     <use xlink:href="#DejaVuSans-31"/>
     <use xlink:href="#DejaVuSans-36" transform="translate(63.623047 0)"/>
     <use xlink:href="#DejaVuSans-20" transform="translate(127.246094 0)"/>
     <use xlink:href="#DejaVuSans-72" transform="translate(159.033203 0)"/>
     <use xlink:href="#DejaVuSans-65" transform="translate(197.896484 0)"/>
     <use xlink:href="#DejaVuSans-66" transform="translate(259.419922 0)"/>
     <use xlink:href="#DejaVuSans-6f" transform="translate(294.625 0)"/>
     <use xlink:href="#DejaVuSans-72" transform="translate(355.806641 0)"/>
     <use xlink:href="#DejaVuSans-6d" transform="translate(395.169922 0)"/>
     <use xlink:href="#DejaVuSans-73" transform="translate(492.582031 0)"/>
    </g>
    <!-- ✓ 0  ≈ 5  ✗ 11 -->
    <g style="fill: #ffffff; opacity: 0.9" transform="translate(801.71251 1011.729245) scale(0.1 -0.1)">
     <defs>
      <path id="DejaVuSans-30" d="M 2034 4250 
Q 1547 4250 1301 3770 
Q 1056 3291 1056 2328 
Q 1056 1369 1301 889 
Q 1547 409 2034 409 
Q 2525 409 2770 889 
Q 3016 1369 3016 2328 
Q 3016 3291 2770 3770 
Q 2525 4250 2034 4250 
z
M 2034 4750 
Q 2819 4750 3233 4129 
Q 3647 3509 3647 2328 
Q 3647 1150 3233 529 
Q 2819 -91 2034 -91 
Q 1250 -91 836 529 
Q 422 1150 422 2328 
Q 422 3509 836 4129 
Q 1250 4750 2034 4750 
z
" transform="scale(0.015625)"/>
      <path id="DejaVuSans-35" d="M 691 4666 
L 3169 4666 
L 3169 4134 
L 1269 4134 
L 1269 2991 
Q 1406 3038 1543 3061 
Q 1681 3084 1819 3084 
Q 2600 3084 3056 2656 
Q 3513 2228 3513 1497 
Q 3513 744 3044 326 
Q 2575 -91 1722 -91 
Q 1428 -91 1123 -41 
Q 819 9 494 109 
L 494 744 
Q 775 591 1075 516 
Q 1375 441 1709 441 
Q 2250 441 2565 725 
Q 2881 1009 2881 1497 
Q 2881 1984 2565 2268 
Q 2250 2553 1709 2553 
Q 1456 2553 1204 2497 
Q 953 2441 691 2322 
L 691 4666 
z
" transform="scale(0.015625)"/>
     </defs>
     <use xlink:href="#DejaVuSans-2713"/>
     <use xlink:href="#DejaVuSans-20" transform="translate(83.789062 0)"/>
     <use xlink:href="#DejaVuSans-30" transform="translate(115.576172 0)"/>
     <use xlink:href="#DejaVuSans-20" transform="translate(179.199219 0)"/>
     <use xlink:href="#DejaVuSans-20" transform="translate(210.986328 0)"/>
     <use xlink:href="#DejaVuSans-2248" transform="translate(242.773438 0)"/>
     <use xlink:href="#DejaVuSans-20" transform="translate(326.5625 0)"/>
     <use xlink:href="#DejaVuSans-35" transform="translate(358.349609 0)"/>
     <use xlink:href="#DejaVuSans-20" transform="translate(421.972656 0)"/>
     <use xlink:href="#DejaVuSans-20" transform="translate(453.759766 0)"/>
     <use xlink:href="#DejaVuSans-2717" transform="translate(485.546875 0)"/>
     <use xlink:href="#DejaVuSans-20" transform="translate(569.335938 0)"/>
     <use xlink:href="#DejaVuSans-31" transform="translate(601.123047 0)"/>
     <use xlink:href="#DejaVuSans-31" transform="translate(664.746094 0)"/>
    </g>
   </g>
   <g id="text_13">
    <!-- Human Capital Pipeline -->
    <g style="fill: #ffffff" transform="translate(358.038348 917.490806) scale(0.13 -0.13)">
     <defs>
      <path id="DejaVuSans-Bold-48" d="M 588 4666 
L 1791 4666 
L 1791 2888 
L 3566 2888 
L 3566 4666 
L 4769 4666 
L 4769 0 
L 3566 0 
L 3566 1978 
L 1791 1978 
L 1791 0 
L 588 0 
L 588 4666 
z
" transform="scale(0.015625)"/>
      <path id="DejaVuSans-Bold-43" d="M 4288 256 
Q 3956 84 3597 -3 
Q 3238 -91 2847 -91 
Q 1681 -91 1000 561 
Q 319 1213 319 2328 
Q 319 3447 1000 4098 
Q 1681 4750 2847 4750 
Q 3238 4750 3597 4662 
Q 3956 4575 4288 4403 
L 4288 3438 
Q 3953 3666 3628 3772 
Q 3303 3878 2944 3878 
Q 2300 3878 1931 3465 
Q 1563 3053 1563 2328 
Q 1563 1606 1931 1193 
Q 2300 781 2944 781 
Q 3303 781 3628 887 
Q 3953 994 4288 1222 
L 4288 256 
z
" transform="scale(0.015625)"/>
     </defs>
     <use xlink:href="#DejaVuSans-Bold-48"/>
     <use xlink:href="#DejaVuSans-Bold-75" transform="translate(83.691406 0)"/>
     <use xlink:href="#DejaVuSans-Bold-6d" transform="translate(154.882812 0)"/>
     <use xlink:href="#DejaVuSans-Bold-61" transform="translate(259.082031 0)"/>
     <use xlink:href="#DejaVuSans-Bold-6e" transform="translate(326.5625 0)"/>
     <use xlink:href="#DejaVuSans-Bold-20" transform="translate(397.753906 0)"/>
     <use xlink:href="#DejaVuSans-Bold-43" transform="translate(432.568359 0)"/>
     <use xlink:href="#DejaVuSans-Bold-61" transform="translate(505.957031 0)"/>
     <use xlink:href="#DejaVuSans-Bold-70" transform="translate(573.4375 0)"/>
     <use xlink:href="#DejaVuSans-Bold-69" transform="translate(645.019531 0)"/>
     <use xlink:href="#DejaVuSans-Bold-74" transform="translate(679.296875 0)"/>
     <use xlink:href="#DejaVuSans-Bold-61" transform="translate(727.099609 0)"/>
     <use xlink:href="#DejaVuSans-Bold-6c" transform="translate(794.580078 0)"/>
     <use xlink:href="#DejaVuSans-Bold-20" transform="translate(828.857422 0)"/>
     <use xlink:href="#DejaVuSans-Bold-50" transform="translate(863.671875 0)"/>
     <use xlink:href="#DejaVuSans-Bold-69" transform="translate(936.962891 0)"/>
     <use xlink:href="#DejaVuSans-Bold-70" transform="translate(971.240234 0)"/>
     <use xlink:href="#DejaVuSans-Bold-65" transform="translate(1042.822266 0)"/>
     <use xlink:href="#DejaVuSans-Bold-6c" transform="translate(1110.644531 0)"/>
     <use xlink:href="#DejaVuSans-Bold-69" transform="translate(1144.921875 0)"/>
     <use xlink:href="#DejaVuSans-Bold-6e" transform="translate(1179.199219 0)"/>
     <use xlink:href="#DejaVuSans-Bold-65" transform="translate(1250.390625 0)"/>
    </g>
   </g>
   <g id="text_14">
    <!-- 30 reforms -->
    <g style="fill: #ffffff; opacity: 0.9" transform="translate(416.489988 1000.531433) scale(0.1 -0.1)">
     <use xlink:href="#DejaVuSans-33"/>
     <use xlink:href="#DejaVuSans-30" transform="translate(63.623047 0)"/>
     <use xlink:href="#DejaVuSans-20" transform="translate(127.246094 0)"/>
     <use xlink:href="#DejaVuSans-72" transform="translate(159.033203 0)"/>
     <use xlink:href="#DejaVuSans-65" transform="translate(197.896484 0)"/>
     <use xlink:href="#DejaVuSans-66" transform="translate(259.419922 0)"/>
     <use xlink:href="#DejaVuSans-6f" transform="translate(294.625 0)"/>
     <use xlink:href="#DejaVuSans-72" transform="translate(355.806641 0)"/>
     <use xlink:href="#DejaVuSans-6d" transform="translate(395.169922 0)"/>
     <use xlink:href="#DejaVuSans-73" transform="translate(492.582031 0)"/>
    </g>
    <!-- ✓ 1  ≈ 15  ✗ 14 -->
    <g style="fill: #ffffff; opacity: 0.9" transform="translate(404.124363 1011.729245) scale(0.1 -0.1)">
     <defs>
      <path id="DejaVuSans-34" d="M 2419 4116 
L 825 1625 
L 2419 1625 
L 2419 4116 
z
M 2253 4666 
L 3047 4666 
L 3047 1625 
L 3713 1625 
L 3713 1100 
L 3047 1100 
L 3047 0 
L 2419 0 
L 2419 1100 
L 313 1100 
L 313 1709 
L 2253 4666 
z
" transform="scale(0.015625)"/>
     </defs>
     <use xlink:href="#DejaVuSans-2713"/>
     <use xlink:href="#DejaVuSans-20" transform="translate(83.789062 0)"/>
     <use xlink:href="#DejaVuSans-31" transform="translate(115.576172 0)"/>
     <use xlink:href="#DejaVuSans-20" transform="translate(179.199219 0)"/>
     <use xlink:href="#DejaVuSans-20" transform="translate(210.986328 0)"/>
     <use xlink:href="#DejaVuSans-2248" transform="translate(242.773438 0)"/>
     <use xlink:href="#DejaVuSans-20" transform="translate(326.5625 0)"/>
     <use xlink:href="#DejaVuSans-31" transform="translate(358.349609 0)"/>
     <use xlink:href="#DejaVuSans-35" transform="translate(421.972656 0)"/>
     <use xlink:href="#DejaVuSans-20" transform="translate(485.595703 0)"/>
     <use xlink:href="#DejaVuSans-20" transform="translate(517.382812 0)"/>
     <use xlink:href="#DejaVuSans-2717" transform="translate(549.169922 0)"/>
     <use xlink:href="#DejaVuSans-20" transform="translate(632.958984 0)"/>
     <use xlink:href="#DejaVuSans-31" transform="translate(664.746094 0)"/>
     <use xlink:href="#DejaVuSans-34" transform="translate(728.369141 0)"/>
    </g>
   </g>
   <g id="text_15">
    <!-- Trade &amp; Industrial -->
    <g style="fill: #ffffff" transform="translate(894.093834 535.108979) scale(0.13 -0.13)">
     <defs>
      <path id="DejaVuSans-Bold-54" d="M 31 4666 
L 4331 4666 
L 4331 3756 
L 2784 3756 
L 2784 0 
L 1581 0 
L 1581 3756 
L 31 3756 
L 31 4666 
z
" transform="scale(0.015625)"/>
     </defs>
     <use xlink:href="#DejaVuSans-Bold-54"/>
     <use xlink:href="#DejaVuSans-Bold-72" transform="translate(57.212891 0)"/>
     <use xlink:href="#DejaVuSans-Bold-61" transform="translate(106.529297 0)"/>
     <use xlink:href="#DejaVuSans-Bold-64" transform="translate(174.009766 0)"/>
     <use xlink:href="#DejaVuSans-Bold-65" transform="translate(245.591797 0)"/>
     <use xlink:href="#DejaVuSans-Bold-20" transform="translate(313.414062 0)"/>
     <use xlink:href="#DejaVuSans-Bold-26" transform="translate(348.228516 0)"/>
     <use xlink:href="#DejaVuSans-Bold-20" transform="translate(435.435547 0)"/>
     <use xlink:href="#DejaVuSans-Bold-49" transform="translate(470.25 0)"/>
     <use xlink:href="#DejaVuSans-Bold-6e" transform="translate(507.457031 0)"/>
     <use xlink:href="#DejaVuSans-Bold-64" transform="translate(578.648438 0)"/>
     <use xlink:href="#DejaVuSans-Bold-75" transform="translate(650.230469 0)"/>
     <use xlink:href="#DejaVuSans-Bold-73" transform="translate(721.421875 0)"/>
     <use xlink:href="#DejaVuSans-Bold-74" transform="translate(780.943359 0)"/>
     <use xlink:href="#DejaVuSans-Bold-72" transform="translate(828.746094 0)"/>
     <use xlink:href="#DejaVuSans-Bold-69" transform="translate(878.0625 0)"/>
     <use xlink:href="#DejaVuSans-Bold-61" transform="translate(912.339844 0)"/>
     <use xlink:href="#DejaVuSans-Bold-6c" transform="translate(979.820312 0)"/>
    </g>
    <!-- Competitiveness -->
    <g style="fill: #ffffff" transform="translate(898.848991 549.666135) scale(0.13 -0.13)">
     <use xlink:href="#DejaVuSans-Bold-43"/>
     <use xlink:href="#DejaVuSans-Bold-6f" transform="translate(73.388672 0)"/>
     <use xlink:href="#DejaVuSans-Bold-6d" transform="translate(142.089844 0)"/>
     <use xlink:href="#DejaVuSans-Bold-70" transform="translate(246.289062 0)"/>
     <use xlink:href="#DejaVuSans-Bold-65" transform="translate(317.871094 0)"/>
     <use xlink:href="#DejaVuSans-Bold-74" transform="translate(385.693359 0)"/>
     <use xlink:href="#DejaVuSans-Bold-69" transform="translate(433.496094 0)"/>
     <use xlink:href="#DejaVuSans-Bold-74" transform="translate(467.773438 0)"/>
     <use xlink:href="#DejaVuSans-Bold-69" transform="translate(515.576172 0)"/>
     <use xlink:href="#DejaVuSans-Bold-76" transform="translate(549.853516 0)"/>
     <use xlink:href="#DejaVuSans-Bold-65" transform="translate(615.039062 0)"/>
     <use xlink:href="#DejaVuSans-Bold-6e" transform="translate(682.861328 0)"/>
     <use xlink:href="#DejaVuSans-Bold-65" transform="translate(754.052734 0)"/>
     <use xlink:href="#DejaVuSans-Bold-73" transform="translate(821.875 0)"/>
     <use xlink:href="#DejaVuSans-Bold-73" transform="translate(881.396484 0)"/>
    </g>
   </g>
   <g id="text_16">
    <!-- 24 reforms -->
    <g style="fill: #ffffff; opacity: 0.9" transform="translate(932.775319 625.428184) scale(0.1 -0.1)">
     <use xlink:href="#DejaVuSans-32"/>
     <use xlink:href="#DejaVuSans-34" transform="translate(63.623047 0)"/>
     <use xlink:href="#DejaVuSans-20" transform="translate(127.246094 0)"/>
     <use xlink:href="#DejaVuSans-72" transform="translate(159.033203 0)"/>
     <use xlink:href="#DejaVuSans-65" transform="translate(197.896484 0)"/>
     <use xlink:href="#DejaVuSans-66" transform="translate(259.419922 0)"/>
     <use xlink:href="#DejaVuSans-6f" transform="translate(294.625 0)"/>
     <use xlink:href="#DejaVuSans-72" transform="translate(355.806641 0)"/>
     <use xlink:href="#DejaVuSans-6d" transform="translate(395.169922 0)"/>
     <use xlink:href="#DejaVuSans-73" transform="translate(492.582031 0)"/>
    </g>
    <!-- ✓ 0  ≈ 16  ✗ 8 -->
    <g style="fill: #ffffff; opacity: 0.9" transform="translate(923.590944 636.625996) scale(0.1 -0.1)">
     <use xlink:href="#DejaVuSans-2713"/>
     <use xlink:href="#DejaVuSans-20" transform="translate(83.789062 0)"/>
     <use xlink:href="#DejaVuSans-30" transform="translate(115.576172 0)"/>
     <use xlink:href="#DejaVuSans-20" transform="translate(179.199219 0)"/>
     <use xlink:href="#DejaVuSans-20" transform="translate(210.986328 0)"/>
     <use xlink:href="#DejaVuSans-2248" transform="translate(242.773438 0)"/>
     <use xlink:href="#DejaVuSans-20" transform="translate(326.5625 0)"/>
     <use xlink:href="#DejaVuSans-31" transform="translate(358.349609 0)"/>
     <use xlink:href="#DejaVuSans-36" transform="translate(421.972656 0)"/>
     <use xlink:href="#DejaVuSans-20" transform="translate(485.595703 0)"/>
     <use xlink:href="#DejaVuSans-20" transform="translate(517.382812 0)"/>
     <use xlink:href="#DejaVuSans-2717" transform="translate(549.169922 0)"/>
     <use xlink:href="#DejaVuSans-20" transform="translate(632.958984 0)"/>
     <use xlink:href="#DejaVuSans-38" transform="translate(664.746094 0)"/>
    </g>
   </g>
   <g id="text_17">
    <!-- State Capacity &amp; -->
    <g style="fill: #ffffff" transform="translate(579.421796 303.23164) scale(0.13 -0.13)">
     <use xlink:href="#DejaVuSans-Bold-53"/>
     <use xlink:href="#DejaVuSans-Bold-74" transform="translate(72.021484 0)"/>
     <use xlink:href="#DejaVuSans-Bold-61" transform="translate(119.824219 0)"/>
     <use xlink:href="#DejaVuSans-Bold-74" transform="translate(187.304688 0)"/>
     <use xlink:href="#DejaVuSans-Bold-65" transform="translate(235.107422 0)"/>
     <use xlink:href="#DejaVuSans-Bold-20" transform="translate(302.929688 0)"/>
     <use xlink:href="#DejaVuSans-Bold-43" transform="translate(337.744141 0)"/>
     <use xlink:href="#DejaVuSans-Bold-61" transform="translate(411.132812 0)"/>
     <use xlink:href="#DejaVuSans-Bold-70" transform="translate(478.613281 0)"/>
     <use xlink:href="#DejaVuSans-Bold-61" transform="translate(550.195312 0)"/>
     <use xlink:href="#DejaVuSans-Bold-63" transform="translate(617.675781 0)"/>
     <use xlink:href="#DejaVuSans-Bold-69" transform="translate(676.953125 0)"/>
     <use xlink:href="#DejaVuSans-Bold-74" transform="translate(711.230469 0)"/>
     <use xlink:href="#DejaVuSans-Bold-79" transform="translate(759.033203 0)"/>
     <use xlink:href="#DejaVuSans-Bold-20" transform="translate(824.21875 0)"/>
     <use xlink:href="#DejaVuSans-Bold-26" transform="translate(859.033203 0)"/>
    </g>
    <!-- Governance -->
    <g style="fill: #ffffff" transform="translate(597.371952 317.890359) scale(0.13 -0.13)">
     <defs>
      <path id="DejaVuSans-Bold-47" d="M 4781 347 
Q 4331 128 3847 18 
Q 3363 -91 2847 -91 
Q 1681 -91 1000 561 
Q 319 1213 319 2328 
Q 319 3456 1012 4103 
Q 1706 4750 2913 4750 
Q 3378 4750 3804 4662 
Q 4231 4575 4609 4403 
L 4609 3438 
Q 4219 3659 3833 3768 
Q 3447 3878 3059 3878 
Q 2341 3878 1952 3476 
Q 1563 3075 1563 2328 
Q 1563 1588 1938 1184 
Q 2313 781 3003 781 
Q 3191 781 3352 804 
Q 3513 828 3641 878 
L 3641 1784 
L 2906 1784 
L 2906 2591 
L 4781 2591 
L 4781 347 
z
" transform="scale(0.015625)"/>
     </defs>
     <use xlink:href="#DejaVuSans-Bold-47"/>
     <use xlink:href="#DejaVuSans-Bold-6f" transform="translate(82.080078 0)"/>
     <use xlink:href="#DejaVuSans-Bold-76" transform="translate(150.78125 0)"/>
     <use xlink:href="#DejaVuSans-Bold-65" transform="translate(215.966797 0)"/>
     <use xlink:href="#DejaVuSans-Bold-72" transform="translate(283.789062 0)"/>
     <use xlink:href="#DejaVuSans-Bold-6e" transform="translate(333.105469 0)"/>
     <use xlink:href="#DejaVuSans-Bold-61" transform="translate(404.296875 0)"/>
     <use xlink:href="#DejaVuSans-Bold-6e" transform="translate(471.777344 0)"/>
     <use xlink:href="#DejaVuSans-Bold-63" transform="translate(542.96875 0)"/>
     <use xlink:href="#DejaVuSans-Bold-65" transform="translate(602.246094 0)"/>
    </g>
   </g>
   <g id="text_18">
    <!-- 26 reforms -->
    <g style="fill: #ffffff; opacity: 0.9" transform="translate(613.693437 393.601626) scale(0.1 -0.1)">
     <use xlink:href="#DejaVuSans-32"/>
     <use xlink:href="#DejaVuSans-36" transform="translate(63.623047 0)"/>
     <use xlink:href="#DejaVuSans-20" transform="translate(127.246094 0)"/>
     <use xlink:href="#DejaVuSans-72" transform="translate(159.033203 0)"/>
     <use xlink:href="#DejaVuSans-65" transform="translate(197.896484 0)"/>
     <use xlink:href="#DejaVuSans-66" transform="translate(259.419922 0)"/>
     <use xlink:href="#DejaVuSans-6f" transform="translate(294.625 0)"/>
     <use xlink:href="#DejaVuSans-72" transform="translate(355.806641 0)"/>
     <use xlink:href="#DejaVuSans-6d" transform="translate(395.169922 0)"/>
     <use xlink:href="#DejaVuSans-73" transform="translate(492.582031 0)"/>
    </g>
    <!-- ✓ 3  ≈ 14  ✗ 9 -->
    <g style="fill: #ffffff; opacity: 0.9" transform="translate(604.509062 404.799439) scale(0.1 -0.1)">
     <use xlink:href="#DejaVuSans-2713"/>
     <use xlink:href="#DejaVuSans-20" transform="translate(83.789062 0)"/>
     <use xlink:href="#DejaVuSans-33" transform="translate(115.576172 0)"/>
     <use xlink:href="#DejaVuSans-20" transform="translate(179.199219 0)"/>
     <use xlink:href="#DejaVuSans-20" transform="translate(210.986328 0)"/>
     <use xlink:href="#DejaVuSans-2248" transform="translate(242.773438 0)"/>
     <use xlink:href="#DejaVuSans-20" transform="translate(326.5625 0)"/>
     <use xlink:href="#DejaVuSans-31" transform="translate(358.349609 0)"/>
     <use xlink:href="#DejaVuSans-34" transform="translate(421.972656 0)"/>
     <use xlink:href="#DejaVuSans-20" transform="translate(485.595703 0)"/>
     <use xlink:href="#DejaVuSans-20" transform="translate(517.382812 0)"/>
     <use xlink:href="#DejaVuSans-2717" transform="translate(549.169922 0)"/>
     <use xlink:href="#DejaVuSans-20" transform="translate(632.958984 0)"/>
     <use xlink:href="#DejaVuSans-39" transform="translate(664.746094 0)"/>
    </g>
   </g>
   <g id="legend_1">
    <g id="patch_21">
     <path d="M 201.219218 1278.159 
L 1080.634843 1278.159 
Q 1082.834843 1278.159 1082.834843 1275.959 
L 1082.834843 1243.799312 
Q 1082.834843 1241.599312 1080.634843 1241.599312 
L 201.219218 1241.599312 
Q 199.019218 1241.599312 199.019218 1243.799312 
L 199.019218 1275.959 
Q 199.019218 1278.159 201.219218 1278.159 
z
" style="fill: #2c3e50; opacity: 0.2; stroke: #ecf0f1; stroke-linejoin: miter"/>
    </g>
    <g id="text_19">
     <!-- Reform Packages -->
     <g transform="translate(589.44328 1255.117437) scale(0.12 -0.12)">
      <defs>
       <path id="DejaVuSans-52" d="M 2841 2188 
Q 3044 2119 3236 1894 
Q 3428 1669 3622 1275 
L 4263 0 
L 3584 0 
L 2988 1197 
Q 2756 1666 2539 1819 
Q 2322 1972 1947 1972 
L 1259 1972 
L 1259 0 
L 628 0 
L 628 4666 
L 2053 4666 
Q 2853 4666 3247 4331 
Q 3641 3997 3641 3322 
Q 3641 2881 3436 2590 
Q 3231 2300 2841 2188 
z
M 1259 4147 
L 1259 2491 
L 2053 2491 
Q 2509 2491 2742 2702 
Q 2975 2913 2975 3322 
Q 2975 3731 2742 3939 
Q 2509 4147 2053 4147 
L 1259 4147 
z
" transform="scale(0.015625)"/>
       <path id="DejaVuSans-50" d="M 1259 4147 
L 1259 2394 
L 2053 2394 
Q 2494 2394 2734 2622 
Q 2975 2850 2975 3272 
Q 2975 3691 2734 3919 
Q 2494 4147 2053 4147 
L 1259 4147 
z
M 628 4666 
L 2053 4666 
Q 2838 4666 3239 4311 
Q 3641 3956 3641 3272 
Q 3641 2581 3239 2228 
Q 2838 1875 2053 1875 
L 1259 1875 
L 1259 0 
L 628 0 
L 628 4666 
z
" transform="scale(0.015625)"/>
       <path id="DejaVuSans-61" d="M 2194 1759 
Q 1497 1759 1228 1600 
Q 959 1441 959 1056 
Q 959 750 1161 570 
Q 1363 391 1709 391 
Q 2188 391 2477 730 
Q 2766 1069 2766 1631 
L 2766 1759 
L 2194 1759 
z
M 3341 1997 
L 3341 0 
L 2766 0 
L 2766 531 
Q 2569 213 2275 61 
Q 1981 -91 1556 -91 
Q 1019 -91 701 211 
Q 384 513 384 1019 
Q 384 1609 779 1909 
Q 1175 2209 1959 2209 
L 2766 2209 
L 2766 2266 
Q 2766 2663 2505 2880 
Q 2244 3097 1772 3097 
Q 1472 3097 1187 3025 
Q 903 2953 641 2809 
L 641 3341 
Q 956 3463 1253 3523 
Q 1550 3584 1831 3584 
Q 2591 3584 2966 3190 
Q 3341 2797 3341 1997 
z
" transform="scale(0.015625)"/>
       <path id="DejaVuSans-63" d="M 3122 3366 
L 3122 2828 
Q 2878 2963 2633 3030 
Q 2388 3097 2138 3097 
Q 1578 3097 1268 2742 
Q 959 2388 959 1747 
Q 959 1106 1268 751 
Q 1578 397 2138 397 
Q 2388 397 2633 464 
Q 2878 531 3122 666 
L 3122 134 
Q 2881 22 2623 -34 
Q 2366 -91 2075 -91 
Q 1284 -91 818 406 
Q 353 903 353 1747 
Q 353 2603 823 3093 
Q 1294 3584 2113 3584 
Q 2378 3584 2631 3529 
Q 2884 3475 3122 3366 
z
" transform="scale(0.015625)"/>
       <path id="DejaVuSans-6b" d="M 581 4863 
L 1159 4863 
L 1159 1991 
L 2875 3500 
L 3609 3500 
L 1753 1863 
L 3688 0 
L 2938 0 
L 1159 1709 
L 1159 0 
L 581 0 
L 581 4863 
z
" transform="scale(0.015625)"/>
       <path id="DejaVuSans-67" d="M 2906 1791 
Q 2906 2416 2648 2759 
Q 2391 3103 1925 3103 
Q 1463 3103 1205 2759 
Q 947 2416 947 1791 
Q 947 1169 1205 825 
Q 1463 481 1925 481 
Q 2391 481 2648 825 
Q 2906 1169 2906 1791 
z
M 3481 434 
Q 3481 -459 3084 -895 
Q 2688 -1331 1869 -1331 
Q 1566 -1331 1297 -1286 
Q 1028 -1241 775 -1147 
L 775 -588 
Q 1028 -725 1275 -790 
Q 1522 -856 1778 -856 
Q 2344 -856 2625 -561 
Q 2906 -266 2906 331 
L 2906 616 
Q 2728 306 2450 153 
Q 2172 0 1784 0 
Q 1141 0 747 490 
Q 353 981 353 1791 
Q 353 2603 747 3093 
Q 1141 3584 1784 3584 
Q 2172 3584 2450 3431 
Q 2728 3278 2906 2969 
L 2906 3500 
L 3481 3500 
L 3481 434 
z
" transform="scale(0.015625)"/>
      </defs>
      <use xlink:href="#DejaVuSans-52"/>
      <use xlink:href="#DejaVuSans-65" transform="translate(64.982422 0)"/>
      <use xlink:href="#DejaVuSans-66" transform="translate(126.505859 0)"/>
      <use xlink:href="#DejaVuSans-6f" transform="translate(161.710938 0)"/>
      <use xlink:href="#DejaVuSans-72" transform="translate(222.892578 0)"/>
      <use xlink:href="#DejaVuSans-6d" transform="translate(262.255859 0)"/>
      <use xlink:href="#DejaVuSans-20" transform="translate(359.667969 0)"/>
      <use xlink:href="#DejaVuSans-50" transform="translate(391.455078 0)"/>
      <use xlink:href="#DejaVuSans-61" transform="translate(447.257812 0)"/>
      <use xlink:href="#DejaVuSans-63" transform="translate(508.537109 0)"/>
      <use xlink:href="#DejaVuSans-6b" transform="translate(563.517578 0)"/>
      <use xlink:href="#DejaVuSans-61" transform="translate(619.677734 0)"/>
      <use xlink:href="#DejaVuSans-67" transform="translate(680.957031 0)"/>
      <use xlink:href="#DejaVuSans-65" transform="translate(744.433594 0)"/>
      <use xlink:href="#DejaVuSans-73" transform="translate(805.957031 0)"/>
     </g>
    </g>
    <g id="patch_22">
     <path d="M 203.419218 1271.471344 
L 225.419218 1271.471344 
L 225.419218 1263.771344 
L 203.419218 1263.771344 
z
" style="fill: #1a6fa8; stroke: #ffffff; stroke-linejoin: miter"/>
    </g>
    <g id="text_20">
     <!-- Pkg 1: Infra Unblock -->
     <g style="fill: #ffffff" transform="translate(234.219218 1271.471344) scale(0.11 -0.11)">
      <defs>
       <path id="DejaVuSans-3a" d="M 750 794 
L 1409 794 
L 1409 0 
L 750 0 
L 750 794 
z
M 750 3309 
L 1409 3309 
L 1409 2516 
L 750 2516 
L 750 3309 
z
" transform="scale(0.015625)"/>
       <path id="DejaVuSans-49" d="M 628 4666 
L 1259 4666 
L 1259 0 
L 628 0 
L 628 4666 
z
" transform="scale(0.015625)"/>
       <path id="DejaVuSans-6e" d="M 3513 2113 
L 3513 0 
L 2938 0 
L 2938 2094 
Q 2938 2591 2744 2837 
Q 2550 3084 2163 3084 
Q 1697 3084 1428 2787 
Q 1159 2491 1159 1978 
L 1159 0 
L 581 0 
L 581 3500 
L 1159 3500 
L 1159 2956 
Q 1366 3272 1645 3428 
Q 1925 3584 2291 3584 
Q 2894 3584 3203 3211 
Q 3513 2838 3513 2113 
z
" transform="scale(0.015625)"/>
       <path id="DejaVuSans-55" d="M 556 4666 
L 1191 4666 
L 1191 1831 
Q 1191 1081 1462 751 
Q 1734 422 2344 422 
Q 2950 422 3222 751 
Q 3494 1081 3494 1831 
L 3494 4666 
L 4128 4666 
L 4128 1753 
Q 4128 841 3676 375 
Q 3225 -91 2344 -91 
Q 1459 -91 1007 375 
Q 556 841 556 1753 
L 556 4666 
z
" transform="scale(0.015625)"/>
       <path id="DejaVuSans-62" d="M 3116 1747 
Q 3116 2381 2855 2742 
Q 2594 3103 2138 3103 
Q 1681 3103 1420 2742 
Q 1159 2381 1159 1747 
Q 1159 1113 1420 752 
Q 1681 391 2138 391 
Q 2594 391 2855 752 
Q 3116 1113 3116 1747 
z
M 1159 2969 
Q 1341 3281 1617 3432 
Q 1894 3584 2278 3584 
Q 2916 3584 3314 3078 
Q 3713 2572 3713 1747 
Q 3713 922 3314 415 
Q 2916 -91 2278 -91 
Q 1894 -91 1617 61 
Q 1341 213 1159 525 
L 1159 0 
L 581 0 
L 581 4863 
L 1159 4863 
L 1159 2969 
z
" transform="scale(0.015625)"/>
       <path id="DejaVuSans-6c" d="M 603 4863 
L 1178 4863 
L 1178 0 
L 603 0 
L 603 4863 
z
" transform="scale(0.015625)"/>
      </defs>
      <use xlink:href="#DejaVuSans-50"/>
      <use xlink:href="#DejaVuSans-6b" transform="translate(60.302734 0)"/>
      <use xlink:href="#DejaVuSans-67" transform="translate(118.212891 0)"/>
      <use xlink:href="#DejaVuSans-20" transform="translate(181.689453 0)"/>
      <use xlink:href="#DejaVuSans-31" transform="translate(213.476562 0)"/>
      <use xlink:href="#DejaVuSans-3a" transform="translate(277.099609 0)"/>
      <use xlink:href="#DejaVuSans-20" transform="translate(310.791016 0)"/>
      <use xlink:href="#DejaVuSans-49" transform="translate(342.578125 0)"/>
      <use xlink:href="#DejaVuSans-6e" transform="translate(372.070312 0)"/>
      <use xlink:href="#DejaVuSans-66" transform="translate(435.449219 0)"/>
      <use xlink:href="#DejaVuSans-72" transform="translate(470.654297 0)"/>
      <use xlink:href="#DejaVuSans-61" transform="translate(511.767578 0)"/>
      <use xlink:href="#DejaVuSans-20" transform="translate(573.046875 0)"/>
      <use xlink:href="#DejaVuSans-55" transform="translate(604.833984 0)"/>
      <use xlink:href="#DejaVuSans-6e" transform="translate(678.027344 0)"/>
      <use xlink:href="#DejaVuSans-62" transform="translate(741.40625 0)"/>
      <use xlink:href="#DejaVuSans-6c" transform="translate(804.882812 0)"/>
      <use xlink:href="#DejaVuSans-6f" transform="translate(832.666016 0)"/>
      <use xlink:href="#DejaVuSans-63" transform="translate(893.847656 0)"/>
      <use xlink:href="#DejaVuSans-6b" transform="translate(948.828125 0)"/>
     </g>
    </g>
    <g id="patch_23">
     <path d="M 366.95828 1271.471344 
L 388.95828 1271.471344 
L 388.95828 1263.771344 
L 366.95828 1263.771344 
z
" style="fill: #8e44ad; stroke: #ffffff; stroke-linejoin: miter"/>
    </g>
    <g id="text_21">
     <!-- Pkg 2: SMME &amp; Employment -->
     <g style="fill: #ffffff" transform="translate(397.75828 1271.471344) scale(0.11 -0.11)">
      <defs>
       <path id="DejaVuSans-53" d="M 3425 4513 
L 3425 3897 
Q 3066 4069 2747 4153 
Q 2428 4238 2131 4238 
Q 1616 4238 1336 4038 
Q 1056 3838 1056 3469 
Q 1056 3159 1242 3001 
Q 1428 2844 1947 2747 
L 2328 2669 
Q 3034 2534 3370 2195 
Q 3706 1856 3706 1288 
Q 3706 609 3251 259 
Q 2797 -91 1919 -91 
Q 1588 -91 1214 -16 
Q 841 59 441 206 
L 441 856 
Q 825 641 1194 531 
Q 1563 422 1919 422 
Q 2459 422 2753 634 
Q 3047 847 3047 1241 
Q 3047 1584 2836 1778 
Q 2625 1972 2144 2069 
L 1759 2144 
Q 1053 2284 737 2584 
Q 422 2884 422 3419 
Q 422 4038 858 4394 
Q 1294 4750 2059 4750 
Q 2388 4750 2728 4690 
Q 3069 4631 3425 4513 
z
" transform="scale(0.015625)"/>
       <path id="DejaVuSans-4d" d="M 628 4666 
L 1569 4666 
L 2759 1491 
L 3956 4666 
L 4897 4666 
L 4897 0 
L 4281 0 
L 4281 4097 
L 3078 897 
L 2444 897 
L 1241 4097 
L 1241 0 
L 628 0 
L 628 4666 
z
" transform="scale(0.015625)"/>
       <path id="DejaVuSans-45" d="M 628 4666 
L 3578 4666 
L 3578 4134 
L 1259 4134 
L 1259 2753 
L 3481 2753 
L 3481 2222 
L 1259 2222 
L 1259 531 
L 3634 531 
L 3634 0 
L 628 0 
L 628 4666 
z
" transform="scale(0.015625)"/>
       <path id="DejaVuSans-26" d="M 1556 2509 
Q 1272 2256 1139 2004 
Q 1006 1753 1006 1478 
Q 1006 1022 1337 719 
Q 1669 416 2169 416 
Q 2466 416 2725 514 
Q 2984 613 3213 813 
L 1556 2509 
z
M 1997 2859 
L 3584 1234 
Q 3769 1513 3872 1830 
Q 3975 2147 3994 2503 
L 4575 2503 
Q 4538 2091 4375 1687 
Q 4213 1284 3922 891 
L 4794 0 
L 4006 0 
L 3559 459 
Q 3234 181 2878 45 
Q 2522 -91 2113 -91 
Q 1359 -91 881 339 
Q 403 769 403 1441 
Q 403 1841 612 2192 
Q 822 2544 1241 2853 
Q 1091 3050 1012 3245 
Q 934 3441 934 3628 
Q 934 4134 1281 4442 
Q 1628 4750 2203 4750 
Q 2463 4750 2720 4694 
Q 2978 4638 3244 4525 
L 3244 3956 
Q 2972 4103 2725 4179 
Q 2478 4256 2266 4256 
Q 1938 4256 1733 4082 
Q 1528 3909 1528 3634 
Q 1528 3475 1620 3314 
Q 1713 3153 1997 2859 
z
" transform="scale(0.015625)"/>
       <path id="DejaVuSans-70" d="M 1159 525 
L 1159 -1331 
L 581 -1331 
L 581 3500 
L 1159 3500 
L 1159 2969 
Q 1341 3281 1617 3432 
Q 1894 3584 2278 3584 
Q 2916 3584 3314 3078 
Q 3713 2572 3713 1747 
Q 3713 922 3314 415 
Q 2916 -91 2278 -91 
Q 1894 -91 1617 61 
Q 1341 213 1159 525 
z
M 3116 1747 
Q 3116 2381 2855 2742 
Q 2594 3103 2138 3103 
Q 1681 3103 1420 2742 
Q 1159 2381 1159 1747 
Q 1159 1113 1420 752 
Q 1681 391 2138 391 
Q 2594 391 2855 752 
Q 3116 1113 3116 1747 
z
" transform="scale(0.015625)"/>
       <path id="DejaVuSans-79" d="M 2059 -325 
Q 1816 -950 1584 -1140 
Q 1353 -1331 966 -1331 
L 506 -1331 
L 506 -850 
L 844 -850 
Q 1081 -850 1212 -737 
Q 1344 -625 1503 -206 
L 1606 56 
L 191 3500 
L 800 3500 
L 1894 763 
L 2988 3500 
L 3597 3500 
L 2059 -325 
z
" transform="scale(0.015625)"/>
       <path id="DejaVuSans-74" d="M 1172 4494 
L 1172 3500 
L 2356 3500 
L 2356 3053 
L 1172 3053 
L 1172 1153 
Q 1172 725 1289 603 
Q 1406 481 1766 481 
L 2356 481 
L 2356 0 
L 1766 0 
Q 1100 0 847 248 
Q 594 497 594 1153 
L 594 3053 
L 172 3053 
L 172 3500 
L 594 3500 
L 594 4494 
L 1172 4494 
z
" transform="scale(0.015625)"/>
      </defs>
      <use xlink:href="#DejaVuSans-50"/>
      <use xlink:href="#DejaVuSans-6b" transform="translate(60.302734 0)"/>
      <use xlink:href="#DejaVuSans-67" transform="translate(118.212891 0)"/>
      <use xlink:href="#DejaVuSans-20" transform="translate(181.689453 0)"/>
      <use xlink:href="#DejaVuSans-32" transform="translate(213.476562 0)"/>
      <use xlink:href="#DejaVuSans-3a" transform="translate(277.099609 0)"/>
      <use xlink:href="#DejaVuSans-20" transform="translate(310.791016 0)"/>
      <use xlink:href="#DejaVuSans-53" transform="translate(342.578125 0)"/>
      <use xlink:href="#DejaVuSans-4d" transform="translate(406.054688 0)"/>
      <use xlink:href="#DejaVuSans-4d" transform="translate(492.333984 0)"/>
      <use xlink:href="#DejaVuSans-45" transform="translate(578.613281 0)"/>
      <use xlink:href="#DejaVuSans-20" transform="translate(641.796875 0)"/>
      <use xlink:href="#DejaVuSans-26" transform="translate(673.583984 0)"/>
      <use xlink:href="#DejaVuSans-20" transform="translate(751.5625 0)"/>
      <use xlink:href="#DejaVuSans-45" transform="translate(783.349609 0)"/>
      <use xlink:href="#DejaVuSans-6d" transform="translate(846.533203 0)"/>
      <use xlink:href="#DejaVuSans-70" transform="translate(943.945312 0)"/>
      <use xlink:href="#DejaVuSans-6c" transform="translate(1007.421875 0)"/>
      <use xlink:href="#DejaVuSans-6f" transform="translate(1035.205078 0)"/>
      <use xlink:href="#DejaVuSans-79" transform="translate(1096.386719 0)"/>
      <use xlink:href="#DejaVuSans-6d" transform="translate(1155.566406 0)"/>
      <use xlink:href="#DejaVuSans-65" transform="translate(1252.978516 0)"/>
      <use xlink:href="#DejaVuSans-6e" transform="translate(1314.501953 0)"/>
      <use xlink:href="#DejaVuSans-74" transform="translate(1377.880859 0)"/>
     </g>
    </g>
    <g id="patch_24">
     <path d="M 575.638593 1271.471344 
L 597.638593 1271.471344 
L 597.638593 1263.771344 
L 575.638593 1263.771344 
z
" style="fill: #16a085; stroke: #ffffff; stroke-linejoin: miter"/>
    </g>
    <g id="text_22">
     <!-- Pkg 3: Human Capital -->
     <g style="fill: #ffffff" transform="translate(606.438593 1271.471344) scale(0.11 -0.11)">
      <defs>
       <path id="DejaVuSans-48" d="M 628 4666 
L 1259 4666 
L 1259 2753 
L 3553 2753 
L 3553 4666 
L 4184 4666 
L 4184 0 
L 3553 0 
L 3553 2222 
L 1259 2222 
L 1259 0 
L 628 0 
L 628 4666 
z
" transform="scale(0.015625)"/>
       <path id="DejaVuSans-75" d="M 544 1381 
L 544 3500 
L 1119 3500 
L 1119 1403 
Q 1119 906 1312 657 
Q 1506 409 1894 409 
Q 2359 409 2629 706 
Q 2900 1003 2900 1516 
L 2900 3500 
L 3475 3500 
L 3475 0 
L 2900 0 
L 2900 538 
Q 2691 219 2414 64 
Q 2138 -91 1772 -91 
Q 1169 -91 856 284 
Q 544 659 544 1381 
z
M 1991 3584 
L 1991 3584 
z
" transform="scale(0.015625)"/>
       <path id="DejaVuSans-43" d="M 4122 4306 
L 4122 3641 
Q 3803 3938 3442 4084 
Q 3081 4231 2675 4231 
Q 1875 4231 1450 3742 
Q 1025 3253 1025 2328 
Q 1025 1406 1450 917 
Q 1875 428 2675 428 
Q 3081 428 3442 575 
Q 3803 722 4122 1019 
L 4122 359 
Q 3791 134 3420 21 
Q 3050 -91 2638 -91 
Q 1578 -91 968 557 
Q 359 1206 359 2328 
Q 359 3453 968 4101 
Q 1578 4750 2638 4750 
Q 3056 4750 3426 4639 
Q 3797 4528 4122 4306 
z
" transform="scale(0.015625)"/>
       <path id="DejaVuSans-69" d="M 603 3500 
L 1178 3500 
L 1178 0 
L 603 0 
L 603 3500 
z
M 603 4863 
L 1178 4863 
L 1178 4134 
L 603 4134 
L 603 4863 
z
" transform="scale(0.015625)"/>
      </defs>
      <use xlink:href="#DejaVuSans-50"/>
      <use xlink:href="#DejaVuSans-6b" transform="translate(60.302734 0)"/>
      <use xlink:href="#DejaVuSans-67" transform="translate(118.212891 0)"/>
      <use xlink:href="#DejaVuSans-20" transform="translate(181.689453 0)"/>
      <use xlink:href="#DejaVuSans-33" transform="translate(213.476562 0)"/>
      <use xlink:href="#DejaVuSans-3a" transform="translate(277.099609 0)"/>
      <use xlink:href="#DejaVuSans-20" transform="translate(310.791016 0)"/>
      <use xlink:href="#DejaVuSans-48" transform="translate(342.578125 0)"/>
      <use xlink:href="#DejaVuSans-75" transform="translate(417.773438 0)"/>
      <use xlink:href="#DejaVuSans-6d" transform="translate(481.152344 0)"/>
      <use xlink:href="#DejaVuSans-61" transform="translate(578.564453 0)"/>
      <use xlink:href="#DejaVuSans-6e" transform="translate(639.84375 0)"/>
      <use xlink:href="#DejaVuSans-20" transform="translate(703.222656 0)"/>
      <use xlink:href="#DejaVuSans-43" transform="translate(735.009766 0)"/>
      <use xlink:href="#DejaVuSans-61" transform="translate(804.833984 0)"/>
      <use xlink:href="#DejaVuSans-70" transform="translate(866.113281 0)"/>
      <use xlink:href="#DejaVuSans-69" transform="translate(929.589844 0)"/>
      <use xlink:href="#DejaVuSans-74" transform="translate(957.373047 0)"/>
      <use xlink:href="#DejaVuSans-61" transform="translate(996.582031 0)"/>
      <use xlink:href="#DejaVuSans-6c" transform="translate(1057.861328 0)"/>
     </g>
    </g>
    <g id="patch_25">
     <path d="M 747.857343 1271.471344 
L 769.857343 1271.471344 
L 769.857343 1263.771344 
L 747.857343 1263.771344 
z
" style="fill: #c0392b; stroke: #ffffff; stroke-linejoin: miter"/>
    </g>
    <g id="text_23">
     <!-- Pkg 4: Trade &amp; Industry -->
     <g style="fill: #ffffff" transform="translate(778.657343 1271.471344) scale(0.11 -0.11)">
      <defs>
       <path id="DejaVuSans-54" d="M -19 4666 
L 3928 4666 
L 3928 4134 
L 2272 4134 
L 2272 0 
L 1638 0 
L 1638 4134 
L -19 4134 
L -19 4666 
z
" transform="scale(0.015625)"/>
       <path id="DejaVuSans-64" d="M 2906 2969 
L 2906 4863 
L 3481 4863 
L 3481 0 
L 2906 0 
L 2906 525 
Q 2725 213 2448 61 
Q 2172 -91 1784 -91 
Q 1150 -91 751 415 
Q 353 922 353 1747 
Q 353 2572 751 3078 
Q 1150 3584 1784 3584 
Q 2172 3584 2448 3432 
Q 2725 3281 2906 2969 
z
M 947 1747 
Q 947 1113 1208 752 
Q 1469 391 1925 391 
Q 2381 391 2643 752 
Q 2906 1113 2906 1747 
Q 2906 2381 2643 2742 
Q 2381 3103 1925 3103 
Q 1469 3103 1208 2742 
Q 947 2381 947 1747 
z
" transform="scale(0.015625)"/>
      </defs>
      <use xlink:href="#DejaVuSans-50"/>
      <use xlink:href="#DejaVuSans-6b" transform="translate(60.302734 0)"/>
      <use xlink:href="#DejaVuSans-67" transform="translate(118.212891 0)"/>
      <use xlink:href="#DejaVuSans-20" transform="translate(181.689453 0)"/>
      <use xlink:href="#DejaVuSans-34" transform="translate(213.476562 0)"/>
      <use xlink:href="#DejaVuSans-3a" transform="translate(277.099609 0)"/>
      <use xlink:href="#DejaVuSans-20" transform="translate(310.791016 0)"/>
      <use xlink:href="#DejaVuSans-54" transform="translate(342.578125 0)"/>
      <use xlink:href="#DejaVuSans-72" transform="translate(388.912109 0)"/>
      <use xlink:href="#DejaVuSans-61" transform="translate(430.025391 0)"/>
      <use xlink:href="#DejaVuSans-64" transform="translate(491.304688 0)"/>
      <use xlink:href="#DejaVuSans-65" transform="translate(554.78125 0)"/>
      <use xlink:href="#DejaVuSans-20" transform="translate(616.304688 0)"/>
      <use xlink:href="#DejaVuSans-26" transform="translate(648.091797 0)"/>
      <use xlink:href="#DejaVuSans-20" transform="translate(726.070312 0)"/>
      <use xlink:href="#DejaVuSans-49" transform="translate(757.857422 0)"/>
      <use xlink:href="#DejaVuSans-6e" transform="translate(787.349609 0)"/>
      <use xlink:href="#DejaVuSans-64" transform="translate(850.728516 0)"/>
      <use xlink:href="#DejaVuSans-75" transform="translate(914.205078 0)"/>
      <use xlink:href="#DejaVuSans-73" transform="translate(977.583984 0)"/>
      <use xlink:href="#DejaVuSans-74" transform="translate(1029.683594 0)"/>
      <use xlink:href="#DejaVuSans-72" transform="translate(1068.892578 0)"/>
      <use xlink:href="#DejaVuSans-79" transform="translate(1110.005859 0)"/>
     </g>
    </g>
    <g id="patch_26">
     <path d="M 929.266249 1271.471344 
L 951.266249 1271.471344 
L 951.266249 1263.771344 
L 929.266249 1263.771344 
z
" style="fill: #d35400; stroke: #ffffff; stroke-linejoin: miter"/>
    </g>
    <g id="text_24">
     <!-- Pkg 5: State Capacity -->
     <g style="fill: #ffffff" transform="translate(960.066249 1271.471344) scale(0.11 -0.11)">
      <use xlink:href="#DejaVuSans-50"/>
      <use xlink:href="#DejaVuSans-6b" transform="translate(60.302734 0)"/>
      <use xlink:href="#DejaVuSans-67" transform="translate(118.212891 0)"/>
      <use xlink:href="#DejaVuSans-20" transform="translate(181.689453 0)"/>
      <use xlink:href="#DejaVuSans-35" transform="translate(213.476562 0)"/>
      <use xlink:href="#DejaVuSans-3a" transform="translate(277.099609 0)"/>
      <use xlink:href="#DejaVuSans-20" transform="translate(310.791016 0)"/>
      <use xlink:href="#DejaVuSans-53" transform="translate(342.578125 0)"/>
      <use xlink:href="#DejaVuSans-74" transform="translate(406.054688 0)"/>
      <use xlink:href="#DejaVuSans-61" transform="translate(445.263672 0)"/>
      <use xlink:href="#DejaVuSans-74" transform="translate(506.542969 0)"/>
      <use xlink:href="#DejaVuSans-65" transform="translate(545.751953 0)"/>
      <use xlink:href="#DejaVuSans-20" transform="translate(607.275391 0)"/>
      <use xlink:href="#DejaVuSans-43" transform="translate(639.0625 0)"/>
      <use xlink:href="#DejaVuSans-61" transform="translate(708.886719 0)"/>
      <use xlink:href="#DejaVuSans-70" transform="translate(770.166016 0)"/>
      <use xlink:href="#DejaVuSans-61" transform="translate(833.642578 0)"/>
      <use xlink:href="#DejaVuSans-63" transform="translate(894.921875 0)"/>
      <use xlink:href="#DejaVuSans-69" transform="translate(949.902344 0)"/>
      <use xlink:href="#DejaVuSans-74" transform="translate(977.685547 0)"/>
      <use xlink:href="#DejaVuSans-79" transform="translate(1016.894531 0)"/>
     </g>
    </g>
   </g>
  </g>
 </g>
 <defs>
  <clipPath id="pd145a55391">
   <rect x="7.2" y="53.483" width="1267.454061" height="1230.176"/>
  </clipPath>
 </defs>
</svg>
